<svg xmlns="http://www.w3.org/2000/svg" xmlns:xlink="http://www.w3.org/1999/xlink" width="500" zoomAndPan="magnify" viewBox="0 0 375 374.999991" height="500" preserveAspectRatio="xMidYMid meet" version="1.0"><defs><g/><clipPath id="id1"><path d="M 61.542969 54.582031 L 313.542969 54.582031 L 313.542969 306.582031 L 61.542969 306.582031 Z M 61.542969 54.582031 " clip-rule="nonzero"/></clipPath><clipPath id="id2"><path d="M 115.746094 74.359375 L 260.484375 74.359375 L 260.484375 231.648438 L 115.746094 231.648438 Z M 115.746094 74.359375 " clip-rule="nonzero"/></clipPath></defs><g clip-path="url(#id1)"><path fill="#000000" d="M 187.542969 54.582031 C 117.953125 54.582031 61.542969 110.996094 61.542969 180.582031 C 61.542969 250.171875 117.953125 306.582031 187.542969 306.582031 C 257.128906 306.582031 313.542969 250.171875 313.542969 180.582031 C 313.542969 110.996094 257.128906 54.582031 187.542969 54.582031 " fill-opacity="1" fill-rule="nonzero"/></g><g fill="#e0d9c8" fill-opacity="1"><g transform="translate(100.681277, 268.653469)"><g><path d="M 1.714844 -0.828125 L 1.714844 -8.035156 L 0.886719 -8.035156 L 0.886719 0 L 4.585938 0 L 4.585938 -0.828125 Z M 1.714844 -0.828125 "/></g></g></g><g fill="#e0d9c8" fill-opacity="1"><g transform="translate(109.935502, 268.653469)"><g><path d="M 7.964844 -4.042969 C 7.964844 -3.121094 7.636719 -2.339844 6.996094 -1.703125 C 6.347656 -1.050781 5.566406 -0.734375 4.65625 -0.734375 C 3.746094 -0.734375 2.964844 -1.050781 2.328125 -1.703125 C 1.679688 -2.339844 1.359375 -3.121094 1.359375 -4.042969 C 1.359375 -4.941406 1.679688 -5.71875 2.328125 -6.371094 C 2.964844 -7.007812 3.746094 -7.339844 4.65625 -7.339844 C 5.566406 -7.339844 6.347656 -7.007812 6.996094 -6.371094 C 7.636719 -5.71875 7.964844 -4.941406 7.964844 -4.042969 Z M 8.792969 -4.042969 C 8.792969 -4.609375 8.675781 -5.140625 8.460938 -5.648438 C 8.25 -6.144531 7.953125 -6.582031 7.574219 -6.960938 C 7.199219 -7.328125 6.761719 -7.625 6.265625 -7.835938 C 5.753906 -8.046875 5.222656 -8.167969 4.65625 -8.167969 C 4.089844 -8.167969 3.546875 -8.046875 3.050781 -7.835938 C 2.554688 -7.625 2.117188 -7.328125 1.738281 -6.960938 C 1.359375 -6.582031 1.0625 -6.144531 0.851562 -5.648438 C 0.636719 -5.140625 0.53125 -4.609375 0.53125 -4.042969 C 0.53125 -3.476562 0.636719 -2.929688 0.851562 -2.433594 C 1.0625 -1.925781 1.359375 -1.488281 1.738281 -1.109375 C 2.117188 -0.734375 2.554688 -0.4375 3.050781 -0.222656 C 3.546875 -0.0117188 4.089844 0.09375 4.65625 0.09375 C 5.222656 0.09375 5.753906 -0.0117188 6.265625 -0.222656 C 6.761719 -0.4375 7.199219 -0.734375 7.574219 -1.109375 C 7.953125 -1.488281 8.25 -1.925781 8.460938 -2.433594 C 8.675781 -2.929688 8.792969 -3.476562 8.792969 -4.042969 Z M 8.792969 -4.042969 "/></g></g></g><g fill="#e0d9c8" fill-opacity="1"><g transform="translate(123.690438, 268.653469)"><g><path d="M 8.261719 -2.457031 L 7.351562 -2.457031 C 7.066406 -1.9375 6.679688 -1.511719 6.179688 -1.207031 C 5.683594 -0.886719 5.128906 -0.734375 4.539062 -0.734375 C 3.652344 -0.734375 2.894531 -1.050781 2.269531 -1.714844 C 1.65625 -2.339844 1.359375 -3.109375 1.359375 -4.007812 C 1.359375 -4.90625 1.65625 -5.671875 2.269531 -6.3125 C 2.554688 -6.605469 2.894531 -6.84375 3.285156 -7.019531 C 3.664062 -7.199219 4.042969 -7.292969 4.421875 -7.292969 C 4.785156 -7.292969 5.105469 -7.246094 5.390625 -7.164062 C 6.253906 -6.902344 6.902344 -6.382812 7.339844 -5.589844 L 8.25 -5.589844 C 7.941406 -6.347656 7.457031 -6.960938 6.785156 -7.433594 C 6.097656 -7.90625 5.355469 -8.144531 4.539062 -8.144531 C 3.414062 -8.144531 2.46875 -7.730469 1.691406 -6.914062 C 1.324219 -6.535156 1.039062 -6.085938 0.839844 -5.589844 C 0.625 -5.09375 0.53125 -4.5625 0.53125 -4.007812 C 0.53125 -2.871094 0.910156 -1.914062 1.691406 -1.109375 C 2.46875 -0.285156 3.414062 0.117188 4.539062 0.117188 C 5.355469 0.117188 6.097656 -0.117188 6.796875 -0.589844 C 7.46875 -1.0625 7.953125 -1.679688 8.261719 -2.457031 Z M 8.261719 -2.457031 "/></g></g></g><g fill="#e0d9c8" fill-opacity="1"><g transform="translate(136.73661, 268.653469)"><g><path d="M 2.1875 -2.953125 L 3.652344 -6.652344 L 5.105469 -2.953125 Z M 7.175781 0 L 3.652344 -8.59375 L 0.117188 0 L 1.015625 0 L 1.878906 -2.1875 L 5.414062 -2.1875 L 6.277344 0 Z M 7.175781 0 "/></g></g></g><g fill="#e0d9c8" fill-opacity="1"><g transform="translate(148.459729, 268.653469)"><g><path d="M 0.238281 -7.292969 L 2.1875 -7.292969 L 2.1875 -0.0234375 L 3.015625 -0.0234375 L 3.015625 -7.292969 L 4.964844 -7.292969 L 4.964844 -8.0625 L 0.238281 -8.0625 Z M 0.238281 -7.292969 "/></g></g></g><g fill="#e0d9c8" fill-opacity="1"><g transform="translate(158.091966, 268.653469)"><g><path d="M 1.714844 0 L 1.714844 -8.035156 L 0.886719 -8.035156 L 0.886719 0 Z M 1.714844 0 "/></g></g></g><g fill="#e0d9c8" fill-opacity="1"><g transform="translate(165.125362, 268.653469)"><g><path d="M 7.964844 -4.042969 C 7.964844 -3.121094 7.636719 -2.339844 6.996094 -1.703125 C 6.347656 -1.050781 5.566406 -0.734375 4.65625 -0.734375 C 3.746094 -0.734375 2.964844 -1.050781 2.328125 -1.703125 C 1.679688 -2.339844 1.359375 -3.121094 1.359375 -4.042969 C 1.359375 -4.941406 1.679688 -5.71875 2.328125 -6.371094 C 2.964844 -7.007812 3.746094 -7.339844 4.65625 -7.339844 C 5.566406 -7.339844 6.347656 -7.007812 6.996094 -6.371094 C 7.636719 -5.71875 7.964844 -4.941406 7.964844 -4.042969 Z M 8.792969 -4.042969 C 8.792969 -4.609375 8.675781 -5.140625 8.460938 -5.648438 C 8.25 -6.144531 7.953125 -6.582031 7.574219 -6.960938 C 7.199219 -7.328125 6.761719 -7.625 6.265625 -7.835938 C 5.753906 -8.046875 5.222656 -8.167969 4.65625 -8.167969 C 4.089844 -8.167969 3.546875 -8.046875 3.050781 -7.835938 C 2.554688 -7.625 2.117188 -7.328125 1.738281 -6.960938 C 1.359375 -6.582031 1.0625 -6.144531 0.851562 -5.648438 C 0.636719 -5.140625 0.53125 -4.609375 0.53125 -4.042969 C 0.53125 -3.476562 0.636719 -2.929688 0.851562 -2.433594 C 1.0625 -1.925781 1.359375 -1.488281 1.738281 -1.109375 C 2.117188 -0.734375 2.554688 -0.4375 3.050781 -0.222656 C 3.546875 -0.0117188 4.089844 0.09375 4.65625 0.09375 C 5.222656 0.09375 5.753906 -0.0117188 6.265625 -0.222656 C 6.761719 -0.4375 7.199219 -0.734375 7.574219 -1.109375 C 7.953125 -1.488281 8.25 -1.925781 8.460938 -2.433594 C 8.675781 -2.929688 8.792969 -3.476562 8.792969 -4.042969 Z M 8.792969 -4.042969 "/></g></g></g><g fill="#e0d9c8" fill-opacity="1"><g transform="translate(178.880296, 268.653469)"><g><path d="M 1.714844 -5.921875 L 6.230469 0.496094 L 6.230469 -8.035156 L 5.402344 -8.035156 L 5.402344 -2.128906 L 0.886719 -8.546875 L 0.886719 0 L 1.714844 0 Z M 1.714844 -5.921875 "/></g></g></g><g fill="#e0d9c8" fill-opacity="1"><g transform="translate(190.426218, 268.653469)"><g><path d="M 3.109375 -3.78125 C 4.148438 -3.535156 4.859375 -3.261719 5.234375 -2.953125 C 5.496094 -2.742188 5.625 -2.46875 5.625 -2.140625 C 5.625 -1.808594 5.554688 -1.535156 5.414062 -1.347656 C 5.058594 -0.851562 4.421875 -0.601562 3.523438 -0.601562 C 2.269531 -0.601562 1.558594 -1.027344 1.40625 -1.878906 L 0.4375 -1.878906 C 0.722656 -0.519531 1.75 0.152344 3.523438 0.152344 C 4.3125 0.152344 4.976562 -0.0117188 5.507812 -0.367188 C 6.144531 -0.78125 6.476562 -1.394531 6.476562 -2.199219 C 6.476562 -2.859375 6.21875 -3.367188 5.695312 -3.722656 C 5.332031 -3.984375 4.738281 -4.21875 3.925781 -4.433594 C 3.097656 -4.644531 2.566406 -4.820312 2.316406 -4.953125 C 1.773438 -5.222656 1.5 -5.601562 1.511719 -6.097656 C 1.511719 -6.359375 1.558594 -6.582031 1.679688 -6.75 C 1.984375 -7.210938 2.527344 -7.445312 3.308594 -7.445312 C 4.410156 -7.445312 5.035156 -7.089844 5.199219 -6.40625 L 6.097656 -6.40625 C 5.804688 -7.5625 4.871094 -8.15625 3.308594 -8.15625 C 2.601562 -8.15625 1.972656 -7.964844 1.453125 -7.585938 C 0.921875 -7.210938 0.648438 -6.652344 0.648438 -5.898438 C 0.648438 -4.871094 1.476562 -4.160156 3.109375 -3.78125 Z M 3.109375 -3.78125 "/></g></g></g><g fill="#e0d9c8" fill-opacity="1"><g transform="translate(201.641383, 268.653469)"><g/></g></g><g fill="#e0d9c8" fill-opacity="1"><g transform="translate(209.265424, 268.653469)"><g><path d="M 3.109375 -4.078125 L 4.871094 -1.820312 C 4.75 -1.703125 4.621094 -1.570312 4.480469 -1.441406 C 3.960938 -0.945312 3.476562 -0.710938 3.050781 -0.710938 C 2.648438 -0.710938 2.292969 -0.863281 2.007812 -1.183594 C 1.726562 -1.488281 1.582031 -1.84375 1.582031 -2.246094 C 1.582031 -2.578125 1.773438 -2.929688 2.164062 -3.320312 C 2.339844 -3.5 2.648438 -3.746094 3.109375 -4.078125 Z M 3.039062 -5.390625 C 2.683594 -5.753906 2.515625 -6.097656 2.515625 -6.453125 C 2.515625 -6.796875 2.613281 -7.042969 2.8125 -7.210938 C 3.003906 -7.363281 3.226562 -7.433594 3.464844 -7.421875 C 3.699219 -7.410156 3.925781 -7.328125 4.125 -7.164062 C 4.3125 -6.996094 4.421875 -6.761719 4.421875 -6.476562 C 4.421875 -6.179688 4.289062 -5.910156 4.042969 -5.660156 C 3.925781 -5.542969 3.804688 -5.449219 3.675781 -5.355469 C 3.546875 -5.257812 3.425781 -5.175781 3.308594 -5.09375 C 3.214844 -5.1875 3.132812 -5.292969 3.039062 -5.390625 Z M 7.03125 -3.132812 L 6.359375 -3.582031 L 5.910156 -3.015625 C 5.753906 -2.824219 5.601562 -2.636719 5.449219 -2.445312 L 3.792969 -4.5625 C 3.9375 -4.679688 4.101562 -4.796875 4.265625 -4.941406 C 4.882812 -5.449219 5.1875 -5.96875 5.1875 -6.488281 C 5.1875 -6.972656 5.023438 -7.375 4.691406 -7.695312 C 4.371094 -8 3.972656 -8.15625 3.476562 -8.15625 C 2.953125 -8.15625 2.527344 -7.988281 2.222656 -7.660156 C 1.902344 -7.328125 1.75 -6.914062 1.75 -6.417969 C 1.75 -5.921875 2.03125 -5.34375 2.601562 -4.691406 C 2.363281 -4.515625 2.128906 -4.347656 1.914062 -4.183594 C 1.144531 -3.628906 0.769531 -2.953125 0.769531 -2.1875 C 0.769531 -1.511719 0.980469 -0.957031 1.429688 -0.507812 C 1.644531 -0.296875 1.890625 -0.140625 2.175781 -0.0234375 C 2.457031 0.09375 2.789062 0.140625 3.15625 0.140625 C 3.535156 0.140625 3.949219 0 4.433594 -0.308594 C 4.679688 -0.449219 4.988281 -0.722656 5.390625 -1.121094 L 6.265625 0.0234375 L 7.351562 0 L 5.96875 -1.808594 C 6.558594 -2.515625 6.914062 -2.964844 7.03125 -3.132812 Z M 7.03125 -3.132812 "/></g></g></g><g fill="#e0d9c8" fill-opacity="1"><g transform="translate(221.839069, 268.653469)"><g/></g></g><g fill="#e0d9c8" fill-opacity="1"><g transform="translate(229.46311, 268.653469)"><g><path d="M 8.296875 0 L 9.136719 0 L 7.269531 -8.570312 L 4.632812 -1.691406 L 1.996094 -8.570312 L 0.117188 0 L 0.96875 0 L 2.210938 -5.71875 L 4.632812 0.472656 L 7.042969 -5.71875 Z M 8.296875 0 "/></g></g></g><g fill="#e0d9c8" fill-opacity="1"><g transform="translate(243.147175, 268.653469)"><g><path d="M 7.964844 -4.042969 C 7.964844 -3.121094 7.636719 -2.339844 6.996094 -1.703125 C 6.347656 -1.050781 5.566406 -0.734375 4.65625 -0.734375 C 3.746094 -0.734375 2.964844 -1.050781 2.328125 -1.703125 C 1.679688 -2.339844 1.359375 -3.121094 1.359375 -4.042969 C 1.359375 -4.941406 1.679688 -5.71875 2.328125 -6.371094 C 2.964844 -7.007812 3.746094 -7.339844 4.65625 -7.339844 C 5.566406 -7.339844 6.347656 -7.007812 6.996094 -6.371094 C 7.636719 -5.71875 7.964844 -4.941406 7.964844 -4.042969 Z M 8.792969 -4.042969 C 8.792969 -4.609375 8.675781 -5.140625 8.460938 -5.648438 C 8.25 -6.144531 7.953125 -6.582031 7.574219 -6.960938 C 7.199219 -7.328125 6.761719 -7.625 6.265625 -7.835938 C 5.753906 -8.046875 5.222656 -8.167969 4.65625 -8.167969 C 4.089844 -8.167969 3.546875 -8.046875 3.050781 -7.835938 C 2.554688 -7.625 2.117188 -7.328125 1.738281 -6.960938 C 1.359375 -6.582031 1.0625 -6.144531 0.851562 -5.648438 C 0.636719 -5.140625 0.53125 -4.609375 0.53125 -4.042969 C 0.53125 -3.476562 0.636719 -2.929688 0.851562 -2.433594 C 1.0625 -1.925781 1.359375 -1.488281 1.738281 -1.109375 C 2.117188 -0.734375 2.554688 -0.4375 3.050781 -0.222656 C 3.546875 -0.0117188 4.089844 0.09375 4.65625 0.09375 C 5.222656 0.09375 5.753906 -0.0117188 6.265625 -0.222656 C 6.761719 -0.4375 7.199219 -0.734375 7.574219 -1.109375 C 7.953125 -1.488281 8.25 -1.925781 8.460938 -2.433594 C 8.675781 -2.929688 8.792969 -3.476562 8.792969 -4.042969 Z M 8.792969 -4.042969 "/></g></g></g><g fill="#e0d9c8" fill-opacity="1"><g transform="translate(256.902109, 268.653469)"><g><path d="M 1.714844 -3.972656 L 1.714844 -7.246094 L 3.582031 -7.246094 C 4.066406 -7.246094 4.457031 -7.089844 4.75 -6.785156 C 5.035156 -6.476562 5.1875 -6.097656 5.1875 -5.625 C 5.1875 -5.152344 5.035156 -4.761719 4.726562 -4.445312 C 4.421875 -4.125 4.042969 -3.972656 3.582031 -3.972656 Z M 6.015625 -5.613281 C 6.015625 -6.300781 5.753906 -6.890625 5.257812 -7.351562 C 4.773438 -7.800781 4.171875 -8.035156 3.464844 -8.035156 L 0.886719 -8.035156 L 0.886719 0 L 1.714844 0 L 1.714844 -3.179688 L 2.671875 -3.179688 L 5.035156 0 L 6.144531 0 L 3.664062 -3.179688 C 4.289062 -3.214844 4.820312 -3.4375 5.257812 -3.851562 C 5.753906 -4.3125 6.015625 -4.90625 6.015625 -5.613281 Z M 6.015625 -5.613281 "/></g></g></g><g fill="#e0d9c8" fill-opacity="1"><g transform="translate(267.762886, 268.653469)"><g><path d="M 5.660156 0 L 5.660156 -0.769531 L 1.714844 -0.769531 L 1.714844 -3.628906 L 5.542969 -3.628906 L 5.542969 -4.410156 L 1.714844 -4.410156 L 1.714844 -7.269531 L 5.660156 -7.269531 L 5.660156 -8.035156 L 0.886719 -8.035156 L 0.886719 0 Z M 5.660156 0 "/></g></g></g><g clip-path="url(#id2)"><path fill="#e0d9c8" d="M 221.972656 198.894531 C 220.847656 196.953125 220.152344 194.785156 219.457031 192.625 C 225.542969 193.039062 231.679688 192.007812 237.175781 189.566406 C 228.164062 192.90625 217.96875 192.453125 209.433594 188.636719 C 211.589844 187.605469 213.246094 185.683594 214.714844 184.367188 C 216.84375 182.582031 219.292969 181.125 221.796875 179.820312 C 226.828125 177.292969 232.238281 175.148438 237.953125 174.816406 C 232.214844 174.855469 226.644531 176.730469 221.414062 179.035156 C 220.179688 179.601562 218.957031 180.203125 217.761719 180.867188 C 219.160156 175.988281 221.28125 171.167969 225.125 167.675781 C 220.886719 171.148438 218.425781 176.300781 216.761719 181.4375 C 215.78125 182.019531 214.824219 182.648438 213.898438 183.34375 C 213.0625 184.027344 212.308594 184.71875 211.558594 185.335938 C 211.4375 185.21875 211.316406 185.109375 211.199219 184.996094 C 210.792969 184.632812 210.414062 184.304688 210.042969 183.957031 C 209.691406 183.617188 209.363281 183.257812 209.070312 182.875 C 211.382812 181.15625 212.515625 178.558594 213.652344 176.183594 C 212.210938 178.410156 210.753906 180.742188 208.503906 181.988281 C 208.433594 181.859375 208.359375 181.726562 208.296875 181.589844 C 207.460938 179.78125 207.628906 177.59375 208.183594 175.585938 C 207.386719 177.496094 206.871094 179.707031 207.53125 181.878906 C 207.851562 182.945312 208.453125 183.925781 209.136719 184.78125 C 209.480469 185.199219 209.847656 185.609375 210.175781 185.992188 C 210.242188 186.074219 210.3125 186.15625 210.378906 186.238281 C 209.421875 186.894531 208.417969 187.382812 207.21875 187.542969 C 207.101562 187.480469 206.984375 187.417969 206.867188 187.351562 C 198.375 182.917969 192.878906 174.074219 192.921875 164.921875 C 193.769531 165.085938 194.628906 165.277344 195.496094 165.484375 C 202.96875 167.464844 211.910156 167.511719 219.289062 164.570312 C 222.601562 163.347656 225.660156 161.707031 228.515625 159.800781 C 231.101562 162.273438 234.292969 164.359375 237.914062 164.863281 C 241.710938 165.421875 245.429688 164.152344 248.527344 162.269531 C 245.28125 163.910156 241.550781 164.816406 238.070312 164.003906 C 234.84375 163.289062 232.132812 161.242188 229.929688 158.824219 C 233.0625 156.59375 235.953125 154.0625 238.671875 151.460938 C 238.785156 151.351562 238.898438 151.238281 239.011719 151.128906 C 241.625 151.859375 244.476562 151.992188 247.046875 151.101562 C 249.847656 150.164062 252.320312 148.609375 254.90625 147.308594 C 252.261719 148.480469 249.691406 149.914062 246.925781 150.683594 C 244.535156 151.375 242.039062 151.179688 239.695312 150.46875 C 244.890625 145.429688 249.714844 140.097656 254.71875 134.925781 C 248.226562 140.523438 241.960938 146.878906 235.144531 152.109375 C 235.292969 151.773438 235.421875 151.417969 235.511719 151.027344 C 236.128906 148.222656 234.425781 145.960938 234.355469 143.722656 C 234.15625 139.0625 235.253906 133.992188 238.429688 130.292969 C 235.023438 133.820312 233.566406 138.859375 233.484375 143.773438 C 233.507812 146.371094 234.925781 148.632812 234.238281 150.726562 C 233.976562 151.679688 233.195312 152.65625 232.5 153.582031 C 232.207031 153.964844 231.890625 154.335938 231.574219 154.703125 C 227.414062 157.542969 223.015625 159.875 218.21875 161.3125 C 215.910156 161.992188 213.539062 162.398438 211.152344 162.558594 C 210.621094 157.933594 213.105469 152.585938 216.117188 148.273438 C 219.652344 143.347656 224.140625 138.816406 229.761719 136.085938 C 223.851562 138.203125 218.757812 142.300781 214.527344 147.027344 C 214.175781 147.457031 213.820312 147.894531 213.464844 148.339844 C 211.261719 145.246094 209.550781 141.683594 208.582031 137.941406 C 216.308594 132.984375 219.566406 123.964844 223.25 116.132812 C 219.34375 123.773438 215.917969 132.390625 208.371094 137.074219 C 207.332031 132.476562 207.421875 127.640625 209.101562 123.082031 C 205.332031 131.640625 207.304688 141.890625 212.390625 149.738281 C 209.707031 153.371094 207.417969 157.597656 207.394531 162.613281 C 204.789062 162.613281 202.175781 162.007812 199.480469 161.269531 C 200.714844 159.402344 201.835938 157.289062 201.980469 154.917969 C 202.238281 151.507812 200.996094 148.472656 199.628906 145.707031 C 200.480469 148.671875 201.035156 151.851562 200.261719 154.621094 C 199.660156 156.925781 198.078125 158.601562 196.265625 160.363281 C 192.714844 159.367188 188.972656 158.238281 184.660156 158.238281 C 184.5 158.234375 184.335938 158.238281 184.175781 158.238281 C 184.402344 157.875 184.632812 157.507812 184.863281 157.140625 C 188.660156 151.066406 192.566406 144.5625 194.652344 137.199219 C 196.382812 131.179688 196.023438 124.6875 193.941406 118.957031 C 197.222656 117.933594 200.074219 116.074219 202.480469 113.835938 C 204.96875 114.042969 207.585938 114.28125 210.191406 114.253906 C 212.777344 114.101562 214.988281 113.003906 216.929688 111.597656 C 220.128906 114.964844 225.308594 114.65625 229.230469 113.460938 C 229.636719 113.347656 230.042969 113.214844 230.445312 113.085938 C 234.453125 116.75 240.117188 115.621094 244.78125 114.789062 C 240.15625 115.460938 234.652344 116.273438 231.019531 112.898438 C 234.65625 111.652344 238.070312 109.871094 241.523438 108.238281 C 237.449219 110.007812 233.421875 111.976562 229.117188 113.042969 C 225.195312 114.09375 220.378906 114.140625 217.613281 111.082031 C 217.871094 110.878906 218.125 110.671875 218.375 110.460938 C 222.851562 106.558594 225.894531 101.257812 231.289062 98.625 C 227.140625 100.394531 224.167969 103.808594 221.035156 106.898438 C 221.164062 103.984375 220.128906 101.261719 220.980469 98.480469 C 221.703125 95.476562 223.050781 92.46875 225.5 90.449219 C 222.988281 92.398438 221.539062 95.390625 220.722656 98.417969 C 219.71875 101.40625 220.878906 104.582031 220.472656 107.449219 C 219.613281 108.273438 218.742188 109.070312 217.824219 109.789062 C 215.601562 111.527344 212.855469 112.949219 210.1875 112.945312 C 208.121094 112.867188 206.082031 112.613281 203.976562 112.335938 C 204.824219 111.425781 205.609375 110.472656 206.324219 109.503906 C 209.820312 104.800781 212.226562 99.570312 214.429688 94.324219 C 211.933594 98.742188 209.257812 103.101562 205.988281 106.863281 C 204.992188 106.449219 204.554688 104.269531 204.382812 102.800781 C 204.210938 101.402344 204.15625 99.980469 204.15625 98.554688 C 206.109375 97.53125 208.390625 96.082031 209.226562 93.785156 C 210.234375 91.625 210.71875 89.296875 212.09375 87.363281 C 210.601562 89.207031 209.941406 91.5625 208.835938 93.585938 C 207.921875 95.601562 206.152344 96.652344 204.167969 97.597656 C 204.167969 97.402344 204.167969 97.203125 204.175781 97.007812 C 204.328125 93.132812 204.5625 89.210938 205.484375 85.421875 C 204.703125 88.105469 204.269531 90.871094 203.960938 93.652344 C 199.4375 91.796875 196.519531 87.144531 194.492188 82.683594 C 196.328125 87.324219 198.90625 92.269531 203.867188 94.558594 C 203.785156 95.367188 203.710938 96.175781 203.640625 96.980469 C 203.507812 98.9375 203.433594 100.902344 203.585938 102.878906 C 203.667969 103.871094 203.789062 104.863281 204.109375 105.859375 C 204.257812 106.421875 204.640625 107.203125 205.28125 107.648438 C 205.113281 107.835938 204.953125 108.027344 204.78125 108.207031 C 201.332031 111.898438 197 114.757812 192.371094 115.40625 C 192.269531 115.214844 192.175781 115.019531 192.070312 114.832031 C 191.171875 113.21875 190.171875 111.6875 189.089844 110.238281 C 189.027344 108.277344 188.648438 106.363281 188.03125 104.535156 C 191.257812 103.210938 194.292969 101.003906 195.871094 97.898438 C 193.964844 100.820312 190.875 102.578125 187.664062 103.535156 C 186.925781 101.65625 185.953125 99.882812 184.835938 98.261719 C 182.332031 94.335938 178.78125 91.160156 177.160156 86.792969 C 178.507812 91.273438 181.902344 94.742188 184.09375 98.722656 C 185.832031 101.617188 187.042969 104.8125 187.355469 108.066406 C 179.546875 98.890625 168.222656 93.300781 156.8125 91.285156 C 170.558594 94.800781 183.320312 103.832031 188.984375 116.328125 C 191.773438 122.53125 192.03125 129.535156 189.746094 135.644531 C 188.488281 139.03125 186.75 142.230469 184.757812 145.355469 C 183.617188 141.714844 181.945312 138.226562 179.605469 135.179688 C 178.078125 133.128906 176.316406 131.320312 174.417969 129.710938 C 174.789062 128.296875 175.054688 126.683594 174.8125 125.203125 C 174.582031 123.414062 173.980469 121.761719 173.273438 120.210938 C 175.859375 118.855469 176.339844 115.636719 176.59375 113.214844 C 176.871094 110.363281 176.621094 107.523438 176.894531 104.695312 C 176.476562 107.507812 176.578125 110.375 176.160156 113.164062 C 175.820312 115.585938 175.0625 118.5 172.925781 119.472656 C 172.921875 119.46875 172.921875 119.464844 172.917969 119.457031 C 171.164062 115.941406 168.921875 112.792969 167.867188 109.042969 C 168.960938 115.660156 174.265625 122.074219 172.496094 128.179688 C 170.160156 126.4375 167.671875 124.949219 165.164062 123.652344 C 161.988281 121.996094 158.742188 120.601562 155.550781 119.171875 L 155.542969 119.113281 L 155.421875 117.953125 C 155.359375 117.183594 155.082031 116.453125 154.921875 115.707031 C 154.789062 115.261719 154.632812 114.828125 154.46875 114.398438 C 159.066406 112.339844 160.558594 107.25 162.582031 103.28125 C 160.417969 107.152344 158.355469 112.164062 154.191406 113.703125 C 153.878906 112.96875 153.535156 112.257812 153.164062 111.566406 C 151.742188 108.957031 149.972656 106.640625 148.320312 104.242188 C 149.664062 106.820312 151.144531 109.355469 152.195312 112.019531 C 152.710938 113.351562 153.128906 114.707031 153.359375 116.074219 C 153.417969 116.765625 153.59375 117.4375 153.554688 118.125 L 153.554688 118.265625 C 152.035156 117.566406 150.527344 116.847656 149.058594 116.074219 C 143.921875 113.449219 139.023438 109.511719 137.46875 103.632812 C 138.480469 109.625 143.257812 114.265625 148.289062 117.371094 C 153.042969 120.421875 158.097656 122.847656 162.761719 125.722656 C 162.285156 125.878906 161.824219 126.070312 161.382812 126.3125 C 159.632812 127.246094 158.339844 128.5625 157.074219 129.691406 C 154.609375 132.007812 151.675781 133.652344 148.304688 134.078125 C 146.554688 134.304688 144.808594 134.285156 143.0625 134.109375 C 141.953125 126.796875 134.425781 123.40625 133.472656 116.425781 C 134.160156 123.34375 141.527344 127.5625 142.222656 134.011719 C 137.480469 133.386719 132.757812 131.652344 128.105469 130.359375 C 134.632812 132.59375 141.121094 135.828125 148.445312 135.375 C 149.296875 135.328125 150.136719 135.199219 150.964844 135 C 150.195312 136.597656 150 138.390625 149.085938 139.585938 C 147.75 141.921875 144.4375 141.871094 142.285156 143.574219 C 144.539062 142.074219 147.796875 142.570312 149.71875 140.0625 C 151.253906 138.125 151.695312 135.421875 153.195312 134.285156 C 155.078125 133.535156 156.832031 132.453125 158.34375 131.1875 C 160.777344 129.035156 163.128906 127.554688 165.882812 127.746094 C 169.886719 130.527344 173.429688 133.800781 175.867188 137.753906 C 178.5625 141.964844 179.847656 146.851562 180.246094 151.859375 C 179.894531 152.335938 179.539062 152.816406 179.183594 153.292969 C 177.28125 155.863281 175.3125 158.472656 173.421875 161.207031 C 172.914062 159.476562 172.296875 157.789062 171.558594 156.078125 C 173.742188 150.21875 170.832031 144.578125 170.273438 139.113281 C 170.402344 144.078125 172.085938 149.613281 170.648438 154.089844 C 170.640625 154.074219 170.628906 154.054688 170.621094 154.03125 C 167.964844 149.328125 164.160156 145.921875 160.660156 142.3125 C 162.460938 145.074219 164.386719 147.816406 165.910156 150.65625 C 164.714844 151.429688 162.441406 151.261719 160.613281 150.960938 C 158.523438 150.613281 156.453125 150.023438 154.410156 149.351562 C 156.34375 150.292969 158.324219 151.160156 160.414062 151.808594 C 162.304688 152.25 164.339844 153.097656 166.644531 152.105469 C 167.132812 153.128906 167.5625 154.167969 167.902344 155.226562 C 168.257812 156.503906 168.542969 157.890625 168.757812 159.316406 C 163.804688 158.019531 158.398438 158.453125 154.410156 161.347656 C 159.164062 158.945312 164.800781 159.820312 169.085938 162.050781 C 169.261719 164.070312 169.292969 166.078125 169.179688 167.894531 C 168.472656 169.144531 167.792969 170.429688 167.15625 171.757812 C 167.097656 171.722656 167.042969 171.679688 166.984375 171.644531 C 164.078125 169.71875 161.074219 168.898438 158.242188 168.234375 C 155.453125 167.585938 152.5 167.140625 150.316406 166.476562 C 149.285156 166.085938 148.269531 165.65625 147.261719 165.207031 C 147.171875 164.511719 147.089844 163.558594 147.175781 162.742188 C 146.960938 160.382812 145.722656 159.035156 144.675781 157.492188 C 142.421875 154.574219 139.703125 152.242188 137.347656 149.53125 C 139.355469 152.503906 141.808594 155.210938 143.589844 158.222656 C 144.398438 159.652344 145.355469 161.457031 145.210938 162.722656 C 145.175781 163.179688 145.109375 163.660156 145.050781 164.167969 C 144.339844 163.816406 143.632812 163.453125 142.933594 163.074219 C 133.359375 157.84375 125.34375 149.679688 119.460938 140.160156 C 123.375 148.226562 128.816406 155.742188 135.738281 161.792969 C 133.902344 163.554688 130.742188 164.027344 127.921875 163.945312 C 124.246094 163.898438 120.570312 163.121094 116.871094 162.742188 C 120.527344 163.40625 124.105469 164.46875 127.871094 164.8125 C 130.730469 165.101562 134.457031 165.011719 136.941406 162.808594 C 138.285156 163.921875 139.671875 164.988281 141.121094 165.984375 C 143.5 167.613281 145.996094 169.097656 148.59375 170.398438 C 151.160156 171.484375 153.394531 172.0625 155.570312 172.757812 C 154.222656 174.261719 153.835938 176.242188 153.128906 177.574219 C 152.832031 178.472656 152.421875 179.257812 151.910156 179.960938 C 150.671875 180.074219 149.042969 179.1875 147.476562 178.464844 C 145.777344 177.609375 143.839844 177.449219 142.082031 177.257812 C 138.464844 176.9375 134.773438 177.351562 131.4375 178.679688 C 134.871094 177.628906 138.5 177.53125 141.972656 178.121094 C 143.722656 178.464844 145.441406 178.734375 146.894531 179.632812 C 148.027344 180.203125 149.109375 181.058594 150.558594 181.457031 C 150.003906 181.96875 149.386719 182.445312 148.703125 182.90625 C 144.597656 185.609375 139.367188 186.289062 134.367188 186.917969 C 137.90625 186.808594 141.566406 186.722656 145.089844 185.824219 C 144.683594 187.355469 144.140625 188.953125 143.519531 190.390625 C 142.796875 192.210938 141.054688 193.402344 139.5 194.691406 C 141.191406 193.648438 143.164062 192.710938 144.28125 190.816406 C 145.386719 189.003906 146.253906 187.25 147.035156 185.230469 C 147.855469 184.9375 148.664062 184.59375 149.460938 184.179688 C 154.777344 182.558594 155.984375 174.1875 158.910156 173.910156 C 161.527344 174.957031 163.636719 176.328125 164.777344 178.003906 C 164.359375 179.371094 164.003906 180.765625 163.722656 182.183594 C 162.15625 182.441406 160.828125 183.351562 159.953125 184.261719 C 158.429688 185.78125 157.683594 187.773438 157.238281 189.523438 C 156.601562 193.078125 154.464844 195.90625 152.007812 198.621094 C 154.789062 196.4375 157.632812 193.671875 158.878906 190.117188 C 159.59375 188.472656 160.457031 187.097656 161.691406 186.21875 C 162.1875 185.847656 162.714844 185.59375 163.207031 185.457031 C 162.824219 188.757812 162.847656 192.152344 163.410156 195.578125 C 164.855469 203.878906 168.6875 210.636719 171.390625 216.902344 C 172.902344 220.179688 173.257812 221.988281 173.660156 225.363281 C 173.855469 227.3125 173.972656 229.441406 174.09375 231.648438 L 187.605469 231.648438 C 187.253906 229.058594 186.914062 226.378906 186.390625 223.472656 C 185.832031 219.753906 184.019531 214.664062 182.171875 211.613281 C 178.625 205.082031 174.953125 199.363281 173.503906 193.550781 C 172.027344 187.84375 172.796875 181.328125 174.980469 175.253906 C 176.132812 172.195312 177.648438 169.191406 179.351562 166.195312 C 181.855469 164.34375 185.234375 163.964844 189 164.328125 C 189.042969 165.785156 189.214844 167.226562 189.496094 168.640625 C 187.945312 169.746094 186.699219 171.21875 186.019531 173.050781 C 185.199219 175.636719 185.941406 177.515625 185.6875 179.398438 C 185.507812 183.234375 182.648438 186.414062 180.511719 189.808594 C 183.039062 186.785156 186.480469 184.082031 187.414062 179.660156 C 187.917969 177.59375 187.691406 175.277344 188.425781 174.074219 C 188.878906 173.242188 189.574219 172.523438 190.378906 171.964844 C 191.449219 175.164062 193.097656 178.15625 195.1875 180.785156 C 195.6875 182.8125 194.792969 187.519531 194.792969 187.519531 C 191.070312 190.003906 189.769531 194.277344 189.265625 198.160156 C 188.863281 202.097656 189.296875 206.3125 191.46875 209.644531 C 189.535156 206.183594 189.417969 202.046875 190.058594 198.277344 C 190.695312 194.871094 192.171875 191.3125 194.835938 189.394531 C 194.847656 191.75 195.828125 194.257812 197.507812 195.808594 C 201.371094 199.585938 206.585938 201.65625 211.765625 201.734375 C 206.644531 201.25 201.699219 198.683594 198.492188 194.949219 C 195.375 191.71875 197.21875 188.027344 197.710938 183.574219 C 200.121094 185.914062 202.910156 187.828125 205.941406 189.144531 C 209.933594 191.023438 214.21875 192.15625 218.550781 192.554688 C 219.414062 194.792969 220.261719 197.078125 221.605469 199.128906 C 223.046875 201.398438 225.496094 202.6875 227.914062 203.519531 C 225.53125 202.546875 223.222656 201.140625 221.972656 198.894531 Z M 205.996094 178.488281 C 205.714844 178.089844 204.894531 174.914062 200.996094 175.601562 L 200.992188 175.597656 L 200.992188 175.601562 C 201.703125 179.90625 205.828125 178.75 205.996094 178.488281 L 206 178.488281 Z M 208.425781 174.558594 L 208.425781 174.554688 C 208.75 173.976562 211.679688 173.578125 211.316406 169.5625 L 211.320312 169.5625 L 211.316406 169.5625 L 211.316406 169.558594 L 211.316406 169.5625 C 206.941406 169.925781 207.859375 174.566406 208.421875 174.554688 L 208.421875 174.558594 Z M 213.78125 175.636719 C 214.394531 175.824219 217.964844 173.457031 216.890625 169.308594 L 216.894531 169.308594 L 216.890625 169.308594 L 216.890625 169.304688 L 216.890625 169.308594 C 212.390625 171.394531 214.085938 175.261719 213.777344 175.632812 L 213.773438 175.636719 Z M 229.460938 181.558594 C 226.078125 178.664062 223.089844 180.371094 222.460938 180.449219 L 222.457031 180.449219 L 222.457031 180.453125 L 222.453125 180.453125 L 222.457031 180.453125 C 222.363281 180.765625 225.597656 184.582031 229.460938 181.5625 L 229.464844 181.5625 L 229.464844 181.558594 Z M 221.449219 187.335938 C 219.792969 185.699219 218.5625 185.34375 217.460938 185.171875 C 216.480469 185.0625 214.949219 184.867188 215.21875 185.222656 C 214.828125 185.113281 215.335938 186.417969 216.390625 187.335938 C 217.542969 188.316406 219.617188 188.675781 221.449219 187.339844 L 221.453125 187.339844 L 221.453125 187.335938 Z M 220.789062 166.125 L 220.785156 166.125 L 220.785156 166.121094 L 220.785156 166.125 C 218.890625 166.8125 219.328125 169.078125 219.980469 169.441406 C 220.589844 169.996094 221.398438 170.25 221.5625 170.34375 L 221.566406 170.34375 L 221.566406 170.339844 C 221.679688 170.257812 222.25 169.441406 222.226562 168.53125 C 222.226562 167.472656 221.953125 167.59375 220.789062 166.125 Z M 228.128906 171.007812 C 225.070312 168.414062 222.984375 171.382812 222.792969 171.675781 L 222.789062 171.675781 L 222.792969 171.675781 C 223.050781 171.910156 225.804688 174.277344 228.128906 171.011719 Z M 229.511719 164.390625 L 229.511719 164.386719 L 229.507812 164.390625 C 225.535156 163.355469 225.015625 167.484375 225.285156 167.71875 L 225.28125 167.722656 L 225.285156 167.71875 L 225.285156 167.722656 C 225.78125 167.535156 228.835938 168.292969 229.511719 164.390625 Z M 126.777344 165.394531 L 126.777344 165.390625 L 126.773438 165.390625 C 126.4375 165.378906 121.84375 165.066406 120.660156 170.253906 L 120.65625 170.257812 L 120.664062 170.257812 C 125.976562 170.921875 127.175781 165.605469 126.773438 165.394531 Z M 123.929688 149 L 123.9375 149 L 123.933594 148.996094 C 123.679688 148.746094 120.351562 145.253906 115.753906 148.425781 L 115.746094 148.425781 L 115.75 148.425781 L 115.746094 148.429688 L 115.753906 148.429688 C 119.382812 152.703125 124.089844 149.445312 123.929688 149 Z M 134.292969 165.433594 L 134.292969 165.429688 L 134.292969 165.433594 C 134.105469 165.492188 130.539062 166.761719 133.160156 169.835938 L 133.164062 169.835938 C 136.25 168.320312 134.574219 165.785156 134.292969 165.433594 L 134.296875 165.429688 Z M 144.59375 193 L 144.59375 192.996094 L 144.589844 192.996094 C 144.265625 193.046875 141.53125 195.441406 144.816406 197.398438 L 144.816406 197.402344 L 144.820312 197.402344 L 144.820312 197.398438 C 147.4375 194.953125 144.804688 193.304688 144.59375 193 Z M 149.007812 195.140625 L 149.003906 195.140625 L 149.007812 195.144531 C 152.0625 197.269531 153.3125 194.507812 153.753906 194.355469 L 153.757812 194.355469 L 153.757812 194.351562 C 153.808594 193.914062 150.605469 191.507812 149.007812 195.140625 Z M 197.730469 86.570312 L 197.730469 86.574219 L 197.734375 86.574219 L 197.734375 86.570312 C 197.96875 86.003906 202.222656 85.371094 200.695312 80.367188 L 200.695312 80.363281 L 200.691406 80.363281 C 195.5625 81.316406 197.035156 86.410156 197.730469 86.570312 Z M 238.640625 110.75 L 238.636719 110.75 L 238.636719 110.753906 C 238.390625 111.324219 240.117188 114.246094 242.824219 112.21875 L 242.828125 112.21875 L 242.824219 112.21875 C 241.402344 108.445312 238.929688 110.960938 238.640625 110.75 Z M 257.308594 153.226562 C 255.234375 149.15625 251.910156 150.777344 251.542969 150.292969 L 251.539062 150.289062 L 251.539062 150.292969 C 251.023438 150.886719 253.316406 154.820312 257.308594 153.230469 L 257.3125 153.230469 L 257.3125 153.226562 Z M 254.933594 142.269531 L 254.929688 142.273438 C 250.152344 142.980469 250.429688 147.96875 251.199219 148.144531 L 251.199219 148.140625 C 251.226562 147.644531 254.820312 146.691406 254.933594 142.273438 L 254.9375 142.273438 L 254.933594 142.273438 Z M 251.066406 127.335938 L 251.070312 127.332031 L 251.066406 127.332031 L 251.066406 127.328125 L 251.0625 127.332031 C 248.125 128.851562 247.535156 131.886719 247.992188 133.824219 C 248.382812 135.898438 249.816406 136.976562 250.011719 137.066406 L 250.015625 137.074219 L 250.015625 137.070312 L 250.019531 137.074219 L 250.015625 137.066406 C 250.125 136.0625 252.703125 132.898438 251.066406 127.335938 Z M 259.007812 138.539062 C 256.585938 135.1875 253.609375 137.453125 253.464844 137.304688 L 253.464844 137.296875 L 253.460938 137.300781 C 253.144531 137.894531 255.742188 141.050781 259.003906 138.542969 L 259.007812 138.542969 Z M 260.480469 129.503906 L 260.476562 129.503906 C 255.773438 129.507812 255.640625 133.703125 255.503906 134.019531 L 255.5 134.023438 L 255.503906 134.023438 L 255.5 134.023438 L 255.503906 134.023438 C 255.953125 134.136719 259.902344 133.75 260.480469 129.507812 Z M 209.648438 125.972656 C 210.015625 125.953125 212.789062 126.320312 213.003906 123.074219 L 213.007812 123.074219 L 213.003906 123.074219 L 213.003906 123.070312 L 213.003906 123.074219 C 209.578125 122.445312 209.5625 125.757812 209.644531 125.96875 L 209.644531 125.972656 Z M 206.570312 123.703125 C 205.960938 122.679688 205.382812 122.703125 203.949219 121.871094 L 203.949219 121.867188 L 203.949219 121.871094 L 203.949219 121.867188 L 203.949219 121.871094 C 202.910156 123.605469 204.542969 125.085938 205.199219 125.234375 C 206.003906 125.53125 206.757812 125.601562 206.941406 125.675781 L 206.949219 125.675781 L 206.945312 125.675781 C 207.015625 125.578125 207.152344 124.566406 206.570312 123.703125 Z M 209.308594 121.140625 L 209.308594 121.144531 L 209.308594 121.140625 C 209.660156 120.871094 212.089844 119.40625 210.851562 116.25 L 210.851562 116.246094 L 210.851562 116.25 L 210.851562 116.246094 L 210.847656 116.25 C 207.324219 117.777344 209.144531 121.027344 209.308594 121.140625 L 209.304688 121.140625 Z M 178.722656 194.285156 C 181.964844 193.378906 180.074219 191.128906 180.058594 190.742188 L 180.058594 190.738281 L 180.058594 190.742188 C 179.738281 190.539062 176.363281 191.464844 178.71875 194.285156 Z M 222.394531 201.839844 C 222.394531 201.839844 222.390625 201.839844 222.390625 201.839844 Z M 223.089844 203.59375 C 222.828125 202.6875 222.390625 201.839844 222.390625 201.839844 C 222.363281 201.851562 221.027344 202.351562 220.671875 203.433594 C 220.183594 204.652344 220.738281 206.671875 222.765625 207.238281 L 222.769531 207.238281 L 222.769531 207.234375 C 223.398438 205.238281 223.378906 204.457031 223.089844 203.59375 Z M 239.167969 194.410156 C 238.023438 192.398438 236.351562 192.265625 235.777344 192.167969 C 235.058594 192.214844 234.042969 191.644531 233.839844 191.640625 L 233.839844 191.636719 L 233.839844 191.640625 L 233.835938 191.636719 L 233.839844 191.640625 C 233.882812 191.75 233.226562 192.933594 234.496094 194.21875 C 235.871094 195.433594 237.375 195.242188 239.167969 194.414062 L 239.171875 194.414062 Z M 237.414062 167.835938 L 237.417969 167.832031 L 237.414062 167.832031 L 237.414062 167.828125 L 237.414062 167.832031 C 231.546875 168.472656 232.402344 173.980469 232.648438 174.335938 C 233.152344 174.113281 237.664062 173.097656 237.414062 167.835938 Z M 242.855469 163.4375 L 242.855469 163.441406 L 242.855469 163.4375 C 243.0625 163.199219 244.046875 162.121094 244.957031 160.941406 C 245.910156 159.660156 246.414062 158.28125 246.765625 155.207031 L 246.769531 155.207031 L 246.765625 155.207031 L 246.769531 155.203125 L 246.765625 155.207031 C 243.480469 155.214844 241.765625 157.941406 241.714844 159.898438 C 241.535156 161.980469 242.699219 163.292969 242.855469 163.4375 L 242.851562 163.441406 Z M 248.859375 168.460938 C 248.324219 164.976562 244.722656 165.394531 244.429688 165.914062 L 244.429688 165.910156 L 244.429688 165.914062 L 244.425781 165.914062 L 244.429688 165.914062 C 244.828125 166.0625 244.738281 169.71875 248.855469 168.464844 L 248.859375 168.464844 Z M 195.714844 215.382812 C 195.152344 211.476562 192.234375 211.273438 191.65625 210.949219 L 191.65625 210.945312 L 191.65625 210.949219 L 191.652344 210.949219 L 191.65625 210.953125 C 191.332031 211.011719 191.109375 215.839844 195.710938 215.386719 L 195.714844 215.386719 Z M 206.160156 199.171875 C 206.769531 199.023438 209.769531 199.625 211.277344 195.894531 L 211.28125 195.890625 L 211.277344 195.890625 L 211.28125 195.890625 L 211.277344 195.890625 C 206.960938 194.394531 205.902344 198.984375 206.160156 199.167969 L 206.15625 199.171875 Z M 191.214844 202.867188 C 191.5625 203.34375 191.488281 203.257812 191.542969 203.484375 C 191.601562 203.847656 191.925781 204.484375 192.316406 205 C 193.203125 206.144531 194.160156 206.683594 196.292969 207.46875 L 196.292969 207.472656 L 196.296875 207.472656 L 196.292969 207.46875 C 196.632812 202.429688 191.71875 202.507812 191.214844 202.867188 Z M 231.390625 199.167969 C 229.933594 197.109375 227.597656 196.921875 226.082031 197.511719 C 224.386719 198.023438 223.941406 199.640625 224.046875 199.75 L 224.042969 199.75 L 224.046875 199.75 L 224.046875 199.753906 L 224.046875 199.75 C 224.824219 199.214844 227.195312 200.878906 231.386719 199.171875 L 231.390625 199.171875 Z M 230.183594 190.480469 L 230.183594 190.484375 L 230.1875 190.480469 C 230.75 189.953125 233.539062 188.679688 234.625 184.503906 L 234.628906 184.5 L 234.628906 184.496094 L 234.625 184.5 C 232.125 184.335938 230.546875 186.179688 230.148438 187.617188 C 229.664062 189.113281 230.117188 190.3125 230.183594 190.480469 L 230.179688 190.484375 Z M 248.429688 175.773438 C 245.1875 170.277344 239.109375 174.0625 239.246094 174.523438 L 239.242188 174.523438 L 239.246094 174.523438 L 239.242188 174.527344 L 239.246094 174.527344 C 240.140625 174.9375 242.714844 178.578125 248.429688 175.777344 L 248.433594 175.777344 L 248.429688 175.773438 L 248.433594 175.773438 Z M 240.992188 179.785156 C 238.09375 176.09375 233.839844 176.484375 233.273438 176.882812 L 233.269531 176.882812 L 233.273438 176.882812 L 233.269531 176.882812 L 233.273438 176.886719 C 233.417969 177.082031 234.074219 178.101562 235.238281 179.054688 C 236.332031 179.960938 238.589844 180.984375 240.992188 179.785156 L 240.996094 179.789062 L 240.992188 179.785156 L 240.996094 179.785156 Z M 188.945312 203.609375 C 188.964844 203.472656 187.371094 202.753906 186.011719 204.015625 C 184.730469 205.03125 183.914062 207.265625 185.269531 209.304688 L 185.269531 209.308594 L 185.273438 209.304688 L 185.273438 209.308594 L 185.273438 209.304688 C 188.433594 206.347656 187.929688 204.023438 188.945312 203.613281 L 188.949219 203.613281 L 188.945312 203.613281 L 188.949219 203.609375 Z M 174.738281 187.78125 C 179.699219 187.042969 181.375 184.242188 182.367188 184.597656 L 182.371094 184.597656 L 182.367188 184.59375 C 182.464844 184.378906 181.15625 183.082031 179.21875 183.496094 C 177.417969 183.78125 175.320312 185.136719 174.738281 187.777344 L 174.734375 187.78125 L 174.734375 187.785156 Z M 183.246094 192.039062 C 183.3125 193.074219 183.46875 193.835938 184.59375 195.789062 L 184.59375 195.792969 L 184.597656 195.792969 C 186.429688 194.613281 186.421875 192.222656 185.5 191.152344 C 184.621094 190.097656 183.867188 189.773438 183.535156 189.714844 L 183.53125 189.710938 L 183.535156 189.71875 C 183.550781 189.722656 183.128906 191.023438 183.246094 192.039062 Z M 190.394531 187.300781 L 190.398438 187.300781 L 190.398438 187.296875 C 192.019531 185.59375 191.261719 183.359375 190.292969 182.484375 C 189.820312 181.957031 189.253906 181.699219 188.839844 181.550781 C 188.625 181.472656 188.230469 181.378906 188.230469 181.378906 C 188.230469 181.378906 188.097656 181.613281 188.078125 181.699219 C 187.953125 182.1875 188.023438 182.753906 188.203125 183.699219 C 188.4375 184.84375 188.988281 185.648438 190.394531 187.296875 Z M 184.414062 175.332031 C 182.785156 173.78125 180.652344 174.304688 179.710938 175.292969 C 178.65625 176.28125 178.691406 177.503906 178.710938 177.644531 L 178.710938 177.648438 L 178.714844 177.648438 C 178.929688 177.621094 179.9375 177.535156 180.914062 177.390625 C 181.953125 177.207031 182.824219 176.789062 184.414062 175.335938 Z M 260.476562 144.359375 L 260.472656 144.359375 C 256.902344 143.027344 256.210938 146.40625 256.160156 146.738281 L 256.15625 146.742188 L 256.160156 146.742188 C 256.46875 146.871094 259.761719 148.207031 260.476562 144.363281 L 260.480469 144.359375 Z M 242.855469 143.125 L 242.855469 143.121094 C 243.003906 143.03125 243.855469 142.296875 244.316406 141.21875 C 244.851562 140.046875 244.765625 139.226562 244.554688 137.117188 L 244.558594 137.113281 L 244.554688 137.113281 C 242.25 137.496094 241.648438 139.835938 241.914062 140.914062 C 242.113281 142.125 242.746094 142.949219 242.851562 143.121094 L 242.851562 143.125 Z M 234.789062 133.125 L 234.789062 133.128906 L 234.789062 133.125 L 234.792969 133.128906 L 234.789062 133.125 C 234.746094 132.769531 235.066406 128.316406 230.25 127.230469 L 230.25 127.226562 L 230.25 127.230469 L 230.246094 127.230469 L 230.25 127.230469 C 230.316406 131.847656 234.320312 133.085938 234.789062 133.125 Z M 235.359375 139.140625 L 235.363281 139.140625 C 235.902344 138.847656 239.136719 139.367188 240.925781 135.511719 L 240.929688 135.511719 L 240.925781 135.511719 L 240.929688 135.507812 L 240.925781 135.511719 C 236.359375 134.097656 234.992188 138.855469 235.359375 139.136719 Z M 199.078125 152.011719 C 198.671875 151.492188 198.34375 148.359375 194.789062 146.230469 L 194.789062 146.226562 L 194.789062 146.230469 L 194.785156 146.226562 L 194.785156 146.230469 C 193.1875 151.414062 198.949219 152.585938 199.078125 152.011719 L 199.082031 152.015625 L 199.082031 152.011719 Z M 208.640625 144.636719 C 203.519531 145.753906 203.175781 150.464844 203.0625 150.847656 L 203.0625 150.851562 L 203.066406 150.847656 C 203.5625 150.828125 207.984375 149.636719 208.640625 144.640625 L 208.644531 144.636719 Z M 199.472656 135.984375 L 199.472656 135.980469 L 199.46875 135.984375 L 199.46875 135.980469 L 199.46875 135.984375 C 196.28125 140.363281 199.113281 145.015625 199.898438 144.980469 L 199.898438 144.984375 L 199.898438 144.980469 L 199.902344 144.980469 L 199.898438 144.976562 C 199.601562 144.417969 202.226562 140.707031 199.472656 135.984375 Z M 179.992188 89.828125 L 179.992188 89.832031 L 179.996094 89.824219 C 180.730469 89.460938 185.457031 87.078125 185.839844 80.785156 L 185.84375 80.78125 L 185.839844 80.78125 L 185.839844 80.773438 L 185.835938 80.78125 C 178.785156 82.542969 179.84375 89.53125 179.992188 89.824219 Z M 184.386719 95.769531 L 184.382812 95.769531 L 184.386719 95.769531 L 184.386719 95.773438 L 184.386719 95.769531 C 184.773438 95.683594 188.601562 94.753906 188.03125 90.417969 L 188.035156 90.414062 L 188.03125 90.414062 L 188.03125 90.417969 C 183.710938 91.421875 184.3125 95.410156 184.386719 95.769531 Z M 202.628906 102.414062 L 202.632812 102.417969 L 202.632812 102.414062 C 201.707031 98.644531 199.34375 100.617188 198.984375 100.058594 L 198.980469 100.058594 L 198.984375 100.058594 C 198.160156 100.375 199.539062 104.3125 202.628906 102.414062 Z M 191.253906 101.769531 L 191.253906 101.773438 L 191.253906 101.769531 L 191.257812 101.773438 L 191.253906 101.769531 C 193.550781 98.164062 190.414062 96.464844 190.609375 95.988281 L 190.609375 95.984375 L 190.609375 95.988281 C 189.839844 95.828125 187.75 99.609375 191.253906 101.769531 Z M 199.410156 94.273438 C 197.679688 93.679688 196.546875 94.65625 196.367188 95.585938 C 196.113281 96.519531 196.566406 97.359375 196.621094 97.484375 L 196.625 97.488281 L 196.625 97.484375 C 196.804688 97.472656 197.679688 97.320312 198.339844 96.984375 C 199.011719 96.59375 199.386719 96.128906 199.410156 94.273438 L 199.414062 94.273438 L 199.410156 94.273438 L 199.410156 94.269531 Z M 192.117188 103.703125 L 192.113281 103.699219 L 192.117188 103.703125 L 192.113281 103.703125 L 192.117188 103.703125 C 191.851562 104.160156 194.574219 108.058594 198.550781 105.84375 L 198.554688 105.847656 L 198.550781 105.84375 L 198.554688 105.84375 L 198.550781 105.84375 C 195.777344 102.226562 192.703125 103.910156 192.117188 103.703125 Z M 150.082031 120.238281 C 149.976562 120.15625 148.773438 119.738281 147.535156 120.476562 C 146.265625 121.199219 145.5625 122.460938 145.597656 124.550781 L 145.59375 124.554688 L 145.597656 124.554688 L 145.597656 124.558594 L 145.601562 124.554688 C 149.984375 123.769531 149.414062 120.609375 150.082031 120.238281 L 150.085938 120.238281 L 150.082031 120.238281 L 150.085938 120.234375 Z M 153.125 131.429688 C 153.019531 131.203125 152.632812 130.125 151.828125 128.925781 C 151.117188 127.828125 149.136719 126.046875 146.5625 126.796875 L 146.558594 126.792969 L 146.5625 126.796875 L 146.558594 126.796875 L 146.5625 126.796875 C 147.929688 128.808594 148.753906 129.925781 150.222656 130.734375 C 151.589844 131.535156 152.945312 131.472656 153.125 131.433594 L 153.128906 131.4375 L 153.128906 131.433594 Z M 134.839844 101.265625 C 135.617188 102.644531 137.058594 102.972656 137.207031 102.933594 L 137.210938 102.933594 L 137.210938 102.929688 C 137.207031 102.648438 137.425781 101.613281 137.550781 100.46875 C 137.648438 99.492188 137.210938 97.050781 134.597656 96.402344 L 134.59375 96.402344 L 134.597656 96.40625 C 134.125 98.699219 133.96875 99.816406 134.839844 101.265625 Z M 142.234375 107.28125 C 145.066406 111.34375 149.867188 109.453125 149.917969 108.882812 L 149.921875 108.882812 L 149.921875 108.878906 L 149.917969 108.878906 C 149.253906 108.804688 146.980469 105.703125 142.234375 107.28125 L 142.230469 107.277344 L 142.234375 107.28125 L 142.230469 107.28125 Z M 147.949219 103.289062 L 147.953125 103.292969 L 147.953125 103.289062 L 147.957031 103.289062 L 147.953125 103.285156 C 147.675781 102.429688 148.273438 97.316406 143.007812 93.207031 L 143.003906 93.199219 L 143.003906 93.207031 C 141.113281 100.050781 147.488281 103.515625 147.949219 103.289062 Z M 156.363281 102.136719 L 156.363281 102.132812 L 156.359375 102.136719 L 156.359375 102.132812 L 156.359375 102.136719 C 155.644531 104.25 155.570312 105.726562 156.324219 107.167969 C 157.019531 108.574219 158.296875 108.996094 158.441406 109.011719 L 158.445312 109.011719 L 158.441406 109.007812 C 158.457031 108.761719 158.585938 107.726562 158.664062 106.550781 C 158.683594 105.472656 158.488281 103.410156 156.363281 102.136719 Z M 166.585938 106.320312 C 163.621094 104.085938 161.242188 107.351562 162.101562 107.921875 L 162.101562 107.917969 C 161.890625 107.683594 164.902344 109.890625 166.585938 106.320312 L 166.589844 106.320312 L 166.585938 106.320312 L 166.589844 106.320312 Z M 164.089844 139.210938 C 164.292969 141.265625 165.132812 142.679688 166.316406 143.503906 C 167.457031 144.398438 168.847656 144.242188 168.910156 144.023438 L 168.914062 144.023438 L 168.910156 144.019531 C 168.175781 143.976562 168.308594 140.542969 164.09375 139.207031 L 164.089844 139.203125 Z M 175.488281 141.191406 L 175.488281 141.1875 L 175.484375 141.191406 C 172.160156 143.132812 172.894531 145.832031 172.28125 146.125 L 172.277344 146.128906 L 172.28125 146.128906 C 172.625 146.890625 176.863281 145.019531 175.488281 141.191406 L 175.488281 141.1875 Z M 163.0625 157.507812 L 163.0625 157.511719 L 163.0625 157.507812 L 163.066406 157.507812 L 163.0625 157.507812 C 163.109375 157.082031 164.34375 154.515625 160.984375 154.3125 L 160.980469 154.308594 L 160.980469 154.3125 L 160.980469 154.308594 L 160.980469 154.3125 C 159.285156 157.597656 162.863281 157.660156 163.0625 157.507812 Z M 149.605469 164.703125 L 149.601562 164.707031 L 149.605469 164.707031 C 153.484375 165.050781 153.328125 161.953125 153.769531 161.671875 L 153.769531 161.667969 C 153.625 161.125 149.4375 160.664062 149.605469 164.703125 Z M 164.820312 162.472656 C 164.585938 162.511719 163.523438 162.730469 162.433594 162.882812 C 161.441406 163.085938 159.585938 163.527344 158.417969 165.664062 L 158.414062 165.667969 L 158.421875 165.667969 C 160.59375 166.296875 162.226562 166.109375 163.558594 165.027344 C 164.847656 163.964844 164.832031 162.613281 164.824219 162.472656 L 164.828125 162.46875 L 164.824219 162.46875 Z M 152.007812 154.3125 C 155.113281 157.496094 157.546875 153.640625 157.136719 152.710938 L 157.136719 152.707031 L 157.136719 152.710938 L 157.132812 152.710938 L 157.136719 152.714844 C 157.175781 153.292969 154.535156 151.410156 152.011719 154.308594 L 152.007812 154.308594 Z M 157.457031 144.960938 L 157.453125 144.960938 L 157.457031 144.960938 C 155.574219 148.234375 159.101562 149.726562 159.535156 149.4375 L 159.535156 149.441406 L 159.535156 149.4375 L 159.539062 149.4375 C 159.347656 149.027344 161.210938 146.308594 157.457031 144.960938 Z M 160.261719 141.757812 L 160.265625 141.761719 L 160.265625 141.757812 C 160.1875 141.238281 160.484375 137.609375 156.421875 136.003906 L 156.421875 136 L 156.417969 136.003906 L 156.417969 136 L 156.417969 136.007812 C 155.433594 140.707031 159.972656 141.851562 160.261719 141.757812 Z M 148.933594 203.019531 L 148.933594 203.023438 L 148.9375 203.023438 C 152.699219 202.316406 151.304688 199.371094 151.65625 199.1875 L 151.65625 199.183594 L 151.660156 199.183594 L 151.65625 199.183594 C 151.292969 198.515625 147.421875 199.519531 148.933594 203.019531 Z M 160.019531 181.984375 L 160.019531 181.988281 C 160.019531 181.984375 160.019531 181.984375 160.019531 181.984375 C 160.019531 181.984375 160.023438 181.984375 160.023438 181.984375 L 160.019531 181.984375 C 160.269531 181.761719 162.015625 178.78125 158.417969 177.667969 L 158.417969 177.664062 L 158.417969 177.667969 L 158.414062 177.667969 L 158.417969 177.667969 C 156.492188 180.878906 159.730469 181.917969 160.019531 181.984375 Z M 154.660156 185.777344 C 153.496094 184.96875 151.300781 185.285156 150.566406 187.261719 L 150.566406 187.265625 L 150.570312 187.265625 C 152.457031 188.089844 153.132812 188.203125 153.933594 188.082031 C 154.675781 187.925781 155.640625 187.894531 155.847656 187.902344 L 155.855469 187.902344 L 155.851562 187.902344 C 155.871094 187.792969 155.921875 186.550781 154.660156 185.777344 Z M 156.042969 196.410156 L 156.039062 196.40625 L 156.039062 196.410156 L 156.035156 196.40625 L 156.039062 196.414062 C 155.992188 197.378906 154.910156 201.3125 157.855469 206.082031 L 157.855469 206.085938 L 157.855469 206.082031 L 157.859375 206.085938 L 157.859375 206.082031 C 160.15625 203.785156 159.753906 200.632812 158.742188 198.980469 C 157.746094 197.199219 156.261719 196.515625 156.042969 196.410156 Z M 122.667969 143.269531 L 122.671875 143.269531 L 122.671875 143.265625 C 123.046875 143.261719 126.820312 139.742188 123.234375 135.96875 L 123.234375 135.964844 L 123.230469 135.96875 L 123.230469 135.964844 L 123.230469 135.96875 C 119.871094 139.613281 122.480469 142.683594 122.667969 143.265625 Z M 148.796875 150.953125 C 144.238281 151.863281 145.203125 156.976562 146.074219 156.867188 L 146.078125 156.871094 L 146.078125 156.867188 C 146.078125 156.117188 149.199219 155.320312 148.800781 150.957031 L 148.804688 150.953125 L 148.800781 150.953125 L 148.800781 150.949219 Z M 145.019531 90.109375 C 150.753906 95.027344 154.507812 90.761719 155.574219 91.292969 L 155.582031 91.292969 L 155.578125 91.292969 L 155.585938 91.289062 L 155.578125 91.289062 C 155.542969 91.074219 154.695312 89.171875 152.398438 88.460938 C 150.042969 87.6875 147.859375 88.203125 145.019531 90.105469 L 145.015625 90.101562 L 145.015625 90.105469 Z M 160.0625 93.675781 C 153.328125 93.371094 153.042969 98.425781 152.003906 98.640625 L 151.996094 98.640625 L 152 98.644531 L 151.996094 98.644531 L 152.003906 98.644531 C 152.144531 98.773438 153.785156 99.644531 155.792969 98.882812 C 157.871094 98.128906 159.117188 96.570312 160.0625 93.679688 L 160.066406 93.675781 L 160.066406 93.671875 Z M 162.210938 91.253906 L 162.210938 91.257812 L 162.214844 91.257812 L 162.214844 91.253906 C 162.371094 91.148438 163.589844 89.742188 163.296875 87.621094 C 163.03125 85.429688 161.789062 83.863281 159.179688 82.296875 L 159.175781 82.289062 L 159.175781 82.296875 L 159.171875 82.292969 L 159.175781 82.296875 C 157.363281 88.78125 162.234375 90.191406 162.210938 91.253906 Z M 169.179688 114.972656 C 168.320312 115.003906 167.902344 112.527344 164.207031 113.410156 L 164.203125 113.40625 L 164.203125 113.410156 L 164.207031 113.410156 C 164.816406 117.824219 169.140625 115.78125 169.179688 114.976562 L 169.183594 114.972656 L 169.179688 114.972656 L 169.183594 114.972656 Z M 172.765625 109.382812 C 174.515625 110.085938 176.015625 109.042969 176.023438 108.863281 L 176.027344 108.863281 L 176.027344 108.859375 L 176.023438 108.859375 C 174.953125 108.40625 175.195312 105.195312 170.1875 104.175781 L 170.1875 104.171875 L 170.183594 104.171875 L 170.183594 104.175781 C 169.414062 106.945312 171.113281 108.863281 172.765625 109.382812 Z M 181.136719 108.902344 C 177.167969 109.339844 177.636719 112.339844 177.203125 112.652344 L 177.195312 112.652344 L 177.199219 112.652344 C 177.339844 113.332031 181.871094 113.011719 181.136719 108.902344 L 181.140625 108.902344 L 181.136719 108.902344 L 181.136719 108.898438 Z M 203.136719 203.847656 C 201.988281 202.277344 201.605469 200.707031 201.488281 200.324219 L 201.492188 200.316406 L 201.488281 200.320312 L 201.488281 200.316406 L 201.488281 200.324219 C 201.355469 200.410156 199.675781 202.078125 200.324219 204.898438 C 200.914062 207.648438 202.832031 209.84375 205.769531 211.863281 L 205.773438 211.867188 L 205.773438 211.863281 L 205.777344 211.867188 L 205.773438 211.863281 C 206.035156 208.085938 204.117188 205.453125 203.136719 203.847656 Z M 206.472656 192.628906 C 202.621094 189.765625 199.644531 192.589844 199.21875 192.285156 L 199.21875 192.28125 L 199.21875 192.285156 L 199.214844 192.285156 L 199.21875 192.285156 C 199.097656 193.082031 202.988281 195.699219 206.472656 192.628906 L 206.476562 192.628906 L 206.472656 192.628906 L 206.476562 192.628906 Z M 246.984375 186.386719 C 244.761719 183.882812 240.972656 185.355469 240.132812 186.597656 C 238.957031 187.789062 238.257812 189.074219 238.117188 189.339844 L 238.109375 189.34375 L 238.113281 189.34375 L 238.113281 189.347656 L 238.117188 189.34375 C 238.332031 189.429688 239.882812 189.953125 241.722656 189.429688 C 243.761719 188.835938 244.304688 188.113281 246.984375 186.390625 L 246.988281 186.390625 L 246.984375 186.390625 L 246.988281 186.390625 Z M 218.21875 203.765625 C 216.269531 199.953125 213.085938 201.773438 212.695312 201.699219 L 212.691406 201.695312 L 212.691406 201.699219 L 212.695312 201.699219 C 212.609375 202.160156 214.550781 205.625 218.21875 203.769531 L 218.222656 203.769531 L 218.21875 203.765625 L 218.222656 203.765625 Z M 142.648438 146.3125 L 142.644531 146.3125 L 142.644531 146.316406 C 142.492188 146.453125 141.636719 147 141.085938 148.105469 C 140.429688 149.023438 140.628906 151.804688 142.929688 152.3125 L 142.933594 152.3125 L 142.933594 152.308594 C 143.347656 150.203125 143.671875 149.753906 143.472656 148.511719 C 143.339844 147.402344 142.765625 146.4375 142.648438 146.316406 Z M 131.074219 173.226562 C 132.269531 177.113281 134.789062 176.359375 135.3125 177.042969 L 135.3125 177.046875 L 135.3125 177.042969 L 135.316406 177.046875 L 135.316406 177.042969 C 135.394531 176.949219 135.882812 175.8125 135.160156 174.609375 C 134.476562 173.40625 133.042969 172.667969 131.074219 173.226562 L 131.070312 173.222656 L 131.070312 173.226562 Z M 133.117188 132.972656 C 132.992188 132.902344 131.523438 132.554688 130.109375 133.195312 C 128.566406 133.914062 127.855469 134.839844 127.039062 137.390625 L 127.035156 137.390625 L 127.039062 137.394531 L 127.035156 137.394531 L 127.039062 137.394531 C 129.667969 138.273438 131.582031 136.652344 132.121094 135.601562 C 132.78125 134.453125 133.03125 133.28125 133.121094 132.976562 L 133.125 132.972656 L 133.121094 132.972656 L 133.121094 132.96875 Z M 140.640625 178.707031 L 140.636719 178.707031 C 140.523438 178.699219 139.378906 178.90625 138.582031 179.792969 C 137.710938 180.777344 137.496094 181.648438 137.703125 183.699219 L 137.703125 183.707031 L 137.703125 183.703125 L 137.703125 183.707031 L 137.707031 183.703125 C 139.835938 183.519531 140.683594 181.78125 140.742188 180.875 C 140.855469 179.859375 140.671875 178.957031 140.640625 178.710938 Z M 147.394531 178.109375 L 147.390625 178.113281 L 147.394531 178.109375 L 147.394531 178.113281 L 147.394531 178.109375 C 147.730469 178.238281 151.179688 174.875 147.535156 171.882812 L 147.535156 171.878906 L 147.53125 171.882812 L 147.53125 171.878906 L 147.53125 171.882812 C 145.238281 175.140625 147.253906 177.546875 147.394531 178.109375 Z M 128.78125 150.625 L 128.78125 150.621094 C 129.003906 150.4375 130.160156 149.617188 131.066406 148.246094 C 131.914062 147.003906 132.742188 144.257812 130.617188 141.882812 L 130.617188 141.878906 L 130.613281 141.882812 L 130.613281 141.878906 L 130.613281 141.882812 C 126.605469 145.414062 128.179688 150.0625 128.777344 150.621094 L 128.777344 150.625 Z M 126.550781 158.667969 L 126.546875 158.664062 L 126.546875 158.671875 C 126.433594 162.871094 129.515625 162.851562 129.84375 163.457031 L 129.847656 163.457031 C 130.46875 163.378906 130.789062 158.75 126.550781 158.667969 Z M 138.796875 157.820312 C 140.117188 157.789062 141.019531 157.207031 141.203125 157.121094 L 141.203125 157.117188 L 141.207031 157.117188 L 141.203125 157.117188 C 141.117188 156.957031 140.40625 156.066406 139.390625 155.476562 C 138.273438 154.769531 137.527344 154.847656 135.410156 154.382812 L 135.40625 154.382812 L 135.40625 154.386719 C 135.117188 156.820312 137.640625 157.992188 138.796875 157.820312 Z M 135.453125 179.113281 L 135.457031 179.109375 L 135.453125 179.109375 L 135.453125 179.105469 L 135.449219 179.109375 C 135.164062 179.296875 133.980469 179.886719 132.535156 180.507812 C 131.253906 181.160156 128.796875 182.601562 128.46875 185.851562 L 128.464844 185.855469 L 128.46875 185.855469 L 128.46875 185.859375 L 128.46875 185.855469 C 131.339844 185.289062 133.199219 184.539062 134.53125 182.765625 C 135.882812 181.085938 135.542969 179.261719 135.453125 179.113281 Z M 119.34375 158.78125 L 119.339844 158.78125 L 119.34375 158.785156 C 119.960938 162.695312 123.097656 162.414062 123.617188 162.597656 L 123.621094 162.597656 L 123.617188 162.59375 C 123.855469 162.402344 123.628906 158.035156 119.34375 158.78125 Z M 138.316406 172.789062 C 138.9375 176.703125 142.070312 176.417969 142.589844 176.601562 L 142.59375 176.605469 L 142.59375 176.601562 C 142.828125 176.410156 142.605469 172.039062 138.320312 172.789062 L 138.316406 172.785156 Z M 142.695312 189.617188 L 142.695312 189.613281 C 142.476562 189.445312 139.566406 187.023438 137.582031 190.628906 L 137.582031 190.632812 L 137.585938 190.632812 C 140.667969 192.828125 142.503906 189.980469 142.695312 189.617188 Z M 136.554688 121.355469 L 136.558594 121.355469 L 136.558594 121.351562 C 136.824219 121.023438 140.035156 118.179688 137.703125 113.933594 L 137.703125 113.929688 L 137.699219 113.929688 L 137.699219 113.925781 L 137.699219 113.933594 C 134.199219 117.164062 136.285156 121.039062 136.554688 121.351562 Z M 140.703125 127.136719 L 140.699219 127.140625 L 140.703125 127.140625 L 140.703125 127.144531 L 140.703125 127.140625 C 140.875 127.054688 141.996094 126.582031 142.765625 125.257812 C 143.574219 124.023438 143.738281 121.550781 141.847656 120 L 141.847656 119.996094 L 141.847656 120 L 141.84375 120 L 141.84375 120.003906 C 140.765625 122.105469 140.488281 123.246094 140.449219 124.550781 C 140.417969 125.792969 140.640625 126.933594 140.703125 127.136719 Z M 127.15625 123.527344 C 131.542969 128.035156 135.882812 125.558594 136.6875 125.511719 L 136.691406 125.511719 L 136.695312 125.507812 L 136.6875 125.507812 C 136.777344 125.015625 132.625 119.867188 127.15625 123.523438 L 127.152344 123.523438 L 127.152344 123.527344 Z M 118.289062 125.789062 C 120.980469 131.355469 126.769531 130.050781 127.195312 129.652344 L 127.199219 129.652344 L 127.195312 129.652344 L 127.199219 129.648438 L 127.195312 129.648438 C 126.726562 129.257812 124.554688 124.179688 118.289062 125.785156 L 118.285156 125.78125 L 118.285156 125.785156 Z M 137.957031 139.222656 C 139.996094 140.550781 141.203125 141.160156 142.792969 141.324219 C 144.296875 141.503906 145.507812 141.03125 145.675781 140.9375 L 145.679688 140.9375 L 145.675781 140.933594 C 145.519531 140.757812 144.804688 139.835938 143.578125 139.039062 C 142.464844 138.265625 139.964844 137.539062 137.957031 139.21875 L 137.953125 139.222656 Z M 150.148438 149.425781 L 150.144531 149.429688 L 150.148438 149.429688 L 150.148438 149.433594 L 150.148438 149.425781 C 152.070312 147.695312 152.160156 145.316406 151.558594 143.785156 C 150.996094 142.164062 149.738281 141.484375 149.578125 141.433594 L 149.574219 141.429688 L 149.574219 141.433594 C 149.699219 142.214844 148.152344 145.152344 150.148438 149.425781 Z M 175.304688 124.011719 L 175.304688 124.015625 L 175.308594 124.015625 C 175.464844 124.070312 176.875 124.425781 178.433594 123.53125 C 179.992188 122.691406 181.324219 120.863281 181.3125 118.304688 L 181.316406 118.300781 L 181.3125 118.300781 L 181.3125 118.296875 L 181.308594 118.300781 C 176.667969 120.175781 176.019531 123.554688 175.304688 124.011719 Z M 230.5 141.945312 L 230.503906 141.945312 L 230.503906 141.941406 L 230.5 141.941406 C 227.828125 141.496094 226.09375 141.867188 224.683594 142.179688 C 223.316406 142.546875 222.085938 142.773438 221.828125 142.839844 L 221.820312 142.839844 L 221.824219 142.839844 L 221.820312 142.839844 L 221.824219 142.84375 C 221.921875 142.980469 222.757812 144.261719 224.683594 144.597656 C 226.554688 144.984375 229.042969 144.214844 230.5 141.945312 Z M 216.054688 136.359375 L 216.054688 136.355469 L 216.054688 136.359375 C 213.40625 140.078125 216.363281 142.960938 216.652344 143.230469 L 216.652344 143.234375 L 216.65625 143.230469 L 216.65625 143.234375 L 216.65625 143.230469 C 216.894531 142.917969 219.308594 139.566406 216.058594 136.359375 L 216.058594 136.355469 Z M 257.808594 158.121094 L 257.804688 158.121094 C 255.1875 156.523438 252.53125 157.257812 251.109375 158.671875 C 249.621094 160.125 249.683594 161.769531 249.660156 161.992188 L 249.65625 161.996094 L 249.660156 161.996094 L 249.660156 162 L 249.664062 161.996094 C 249.945312 161.992188 251.421875 161.757812 252.808594 161.472656 C 254.253906 161.148438 255.847656 160.5 257.804688 158.125 L 257.808594 158.125 L 257.804688 158.125 Z M 242.125 122.722656 L 242.128906 122.71875 L 242.125 122.71875 C 237.117188 124.414062 238.566406 129.417969 238.691406 129.570312 L 238.691406 129.574219 L 238.695312 129.578125 L 238.695312 129.574219 C 239.234375 129.238281 242.339844 127.214844 242.125 122.722656 Z M 213.746094 154.578125 C 213.957031 155.035156 221.027344 156.386719 223.628906 149.839844 L 223.632812 149.839844 L 223.628906 149.839844 L 223.632812 149.835938 L 223.625 149.839844 C 217.019531 149.636719 214.476562 154.046875 213.746094 154.574219 L 213.738281 154.574219 L 213.742188 154.574219 L 213.742188 154.578125 Z M 227.6875 119.917969 L 227.691406 119.917969 L 227.6875 119.917969 L 227.6875 119.914062 L 227.6875 119.917969 C 223.1875 120.023438 220.78125 123.308594 220.804688 124.097656 L 220.800781 124.101562 L 220.804688 124.097656 L 220.804688 124.101562 L 220.808594 124.097656 C 220.9375 123.824219 226.027344 125.207031 227.6875 119.917969 Z M 222.722656 131.304688 L 222.722656 131.300781 L 222.71875 131.300781 C 218.507812 129.472656 215.246094 132.949219 215.539062 133.691406 L 215.535156 133.691406 L 215.539062 133.691406 L 215.539062 133.695312 L 215.542969 133.691406 C 215.992188 133.238281 219.617188 135.332031 222.722656 131.304688 Z M 205.652344 132.199219 L 205.65625 132.199219 L 205.652344 132.195312 C 205.613281 132.007812 205.027344 130.792969 203.792969 129.894531 C 202.507812 128.882812 201.121094 128.554688 198.773438 128.015625 L 198.769531 128.011719 L 198.769531 128.019531 C 199.023438 130.714844 201.449219 131.859375 202.785156 132.09375 C 204.265625 132.367188 205.40625 132.199219 205.652344 132.199219 Z M 218.054688 116.15625 L 218.054688 116.152344 L 218.050781 116.15625 C 215.941406 117.550781 215.558594 119.996094 216.140625 121.570312 C 216.679688 123.214844 217.902344 123.84375 218.050781 123.921875 L 218.054688 123.925781 L 218.054688 123.917969 C 218.113281 123.683594 218.332031 122.535156 218.542969 121.28125 C 218.722656 119.980469 218.769531 118.539062 218.054688 116.15625 Z M 234.488281 105.644531 C 234.101562 108.042969 235.1875 109.652344 235.320312 109.847656 L 235.320312 109.855469 L 235.324219 109.855469 L 235.324219 109.847656 C 235.710938 108.734375 239.660156 106.441406 240.003906 99.695312 L 240.007812 99.691406 L 240.003906 99.691406 L 240.003906 99.6875 L 240 99.691406 C 236.628906 100.683594 234.820312 103.257812 234.488281 105.644531 Z M 245.585938 120.570312 C 242.535156 116.65625 239.109375 117.21875 238.460938 116.71875 L 238.453125 116.71875 L 238.457031 116.71875 L 238.453125 116.71875 L 238.457031 116.722656 C 238.46875 116.894531 238.578125 118.28125 239.871094 119.46875 C 241.148438 120.675781 243.183594 121.277344 245.585938 120.574219 L 245.589844 120.574219 L 245.585938 120.570312 L 245.589844 120.570312 Z M 245.605469 114.929688 L 245.601562 114.933594 L 245.605469 114.933594 L 245.605469 114.9375 L 245.609375 114.933594 C 246.132812 114.707031 249.632812 116.652344 252.957031 113.039062 L 252.960938 113.039062 L 252.960938 113.035156 L 252.957031 113.039062 C 248.726562 110.777344 245.464844 114.351562 245.605469 114.929688 Z M 243.0625 107.554688 L 243.066406 107.554688 L 243.066406 107.558594 L 243.070312 107.554688 C 243.492188 107.472656 246.824219 108.765625 248.640625 104.976562 L 248.644531 104.976562 L 248.644531 104.972656 L 248.640625 104.972656 C 244.609375 103.265625 242.941406 107.15625 243.066406 107.554688 Z M 232.304688 97.515625 L 232.308594 97.511719 C 232.535156 97.515625 233.707031 97.382812 234.941406 96.949219 C 236.171875 96.488281 237.558594 95.878906 238.96875 93.804688 L 238.976562 93.804688 L 238.972656 93.804688 L 238.972656 93.800781 L 238.96875 93.804688 C 236.730469 93.023438 234.65625 93.761719 233.597656 94.941406 C 232.515625 96.089844 232.347656 97.332031 232.304688 97.511719 L 232.300781 97.515625 L 232.304688 97.511719 Z M 227.128906 103.074219 C 225.96875 103.285156 224.984375 103.800781 224.8125 103.902344 L 224.808594 103.902344 L 224.8125 103.902344 C 224.921875 104.058594 225.574219 104.992188 226.863281 105.480469 C 228.015625 105.96875 230.394531 105.933594 231.476562 103.785156 L 231.480469 103.78125 L 231.480469 103.777344 L 231.476562 103.78125 C 229.414062 103.078125 228.394531 102.816406 227.128906 103.074219 Z M 222.234375 92.613281 L 222.238281 92.617188 L 222.242188 92.617188 L 222.238281 92.613281 C 222.402344 91.945312 224.410156 87.476562 219.925781 83.730469 L 219.925781 83.722656 L 219.925781 83.726562 L 219.921875 83.722656 L 219.925781 83.730469 C 216.800781 89.175781 221.851562 92.554688 222.234375 92.613281 Z M 222.574219 96.117188 L 222.570312 96.117188 L 222.574219 96.121094 L 222.570312 96.121094 L 222.574219 96.121094 C 222.796875 96.476562 227.0625 97.640625 228.472656 93.339844 L 228.472656 93.335938 L 228.46875 93.335938 C 224.226562 92.433594 222.945312 95.835938 222.574219 96.117188 Z M 207.984375 101.84375 L 207.988281 101.84375 L 207.988281 101.839844 C 208.488281 101.59375 210.410156 98.957031 207.824219 96.558594 L 207.824219 96.554688 L 207.824219 96.558594 L 207.824219 96.554688 L 207.824219 96.558594 C 206.058594 97.683594 206.242188 99.496094 206.6875 100.257812 C 207.144531 101.109375 207.851562 101.691406 207.984375 101.839844 Z M 211.246094 102.707031 L 211.242188 102.707031 L 211.246094 102.707031 L 211.246094 102.710938 L 211.246094 102.707031 C 211.539062 102.824219 216.113281 104.226562 218.316406 99.644531 L 218.320312 99.644531 L 218.320312 99.640625 L 218.316406 99.644531 C 213.707031 98.824219 211.515625 102.261719 211.246094 102.707031 Z M 207.667969 85.859375 L 207.667969 85.855469 L 207.667969 85.859375 L 207.667969 85.855469 L 207.667969 85.859375 C 206.152344 87.164062 206.300781 89.054688 207.199219 89.9375 C 207.980469 90.929688 209.183594 90.925781 209.261719 90.921875 L 209.261719 90.925781 L 209.261719 90.921875 L 209.265625 90.921875 L 209.261719 90.921875 C 209.308594 90.675781 209.355469 89.789062 209.398438 88.929688 C 209.316406 88.0625 209.148438 87.285156 207.667969 85.859375 Z M 211.519531 90.992188 L 211.523438 90.992188 C 211.9375 90.925781 215.257812 91.832031 216.371094 87.96875 L 216.371094 87.964844 L 216.367188 87.964844 C 212.316406 86.691406 211.390625 90.652344 211.519531 90.988281 Z M 212.316406 86.101562 L 212.320312 86.097656 L 212.320312 86.101562 L 212.320312 86.097656 C 212.824219 85.703125 216.40625 84.261719 216.90625 79.425781 L 216.910156 79.421875 L 216.90625 79.421875 L 216.90625 79.417969 L 216.902344 79.421875 C 211.742188 80.589844 212.078125 85.878906 212.316406 86.097656 Z M 206.089844 84.097656 L 206.089844 84.101562 L 206.089844 84.097656 L 206.09375 84.097656 C 206.003906 83.175781 209.917969 81.695312 207.632812 76.585938 L 207.632812 76.582031 L 207.628906 76.585938 L 207.628906 76.582031 L 207.628906 76.585938 C 202.519531 78.789062 205.121094 84.386719 206.089844 84.097656 Z M 191.136719 85.621094 C 192.84375 89.320312 195.421875 87.433594 195.882812 87.816406 L 195.886719 87.820312 L 195.886719 87.816406 C 196.410156 87.359375 194.492188 83.554688 191.136719 85.617188 Z M 194.011719 81.710938 L 194.015625 81.714844 L 194.015625 81.710938 C 193.914062 80.894531 197.789062 78.734375 194.160156 74.363281 L 194.160156 74.359375 L 194.15625 74.359375 L 194.15625 74.363281 C 189.46875 77.382812 193.199219 82.03125 194.011719 81.710938 Z M 169.011719 89.019531 C 170.488281 91.488281 173.160156 91.929688 174.714844 91.894531 C 176.375 91.828125 177.554688 91.542969 177.835938 91.519531 L 177.839844 91.519531 L 177.84375 91.515625 L 177.835938 91.515625 C 177.765625 91.332031 176.832031 90.136719 175.175781 89.523438 C 173.472656 88.820312 171.660156 88.746094 169.011719 89.019531 L 169.007812 89.015625 L 169.007812 89.019531 Z M 177.230469 86.351562 L 177.234375 86.355469 L 177.234375 86.351562 L 177.238281 86.351562 L 177.234375 86.347656 C 176.777344 85.761719 178.101562 80.394531 173.816406 75.347656 L 173.816406 75.339844 L 173.8125 75.34375 L 173.8125 75.339844 L 173.8125 75.347656 C 171.347656 81.847656 176.414062 86.585938 177.230469 86.351562 Z M 129.84375 107.523438 L 129.847656 107.519531 L 129.847656 107.515625 L 129.851562 107.519531 C 135.332031 105.890625 137.929688 108.964844 138.082031 109.445312 L 138.085938 109.445312 L 138.082031 109.445312 L 138.082031 109.449219 L 138.078125 109.449219 C 137.675781 109.5 132.28125 111.808594 129.847656 107.523438 L 129.84375 107.523438 " fill-opacity="1" fill-rule="nonzero"/></g><g fill="#e0d9c8" fill-opacity="1"><g transform="translate(105.136183, 251.36238)"><g><path d="M 8.800781 -2.621094 L 7.832031 -2.621094 C 7.53125 -2.066406 7.113281 -1.613281 6.585938 -1.285156 C 6.058594 -0.945312 5.464844 -0.78125 4.835938 -0.78125 C 3.890625 -0.78125 3.085938 -1.121094 2.417969 -1.824219 C 1.761719 -2.492188 1.449219 -3.3125 1.449219 -4.269531 C 1.449219 -5.226562 1.761719 -6.042969 2.417969 -6.722656 C 2.71875 -7.039062 3.085938 -7.292969 3.5 -7.480469 C 3.902344 -7.667969 4.304688 -7.769531 4.710938 -7.769531 C 5.101562 -7.769531 5.441406 -7.71875 5.742188 -7.632812 C 6.660156 -7.355469 7.355469 -6.800781 7.820312 -5.957031 L 8.789062 -5.957031 C 8.460938 -6.761719 7.945312 -7.417969 7.226562 -7.921875 C 6.496094 -8.425781 5.703125 -8.675781 4.835938 -8.675781 C 3.640625 -8.675781 2.632812 -8.234375 1.800781 -7.367188 C 1.410156 -6.964844 1.109375 -6.484375 0.894531 -5.957031 C 0.667969 -5.425781 0.566406 -4.859375 0.566406 -4.269531 C 0.566406 -3.058594 0.96875 -2.039062 1.800781 -1.183594 C 2.632812 -0.300781 3.640625 0.125 4.835938 0.125 C 5.703125 0.125 6.496094 -0.125 7.242188 -0.628906 C 7.957031 -1.132812 8.476562 -1.789062 8.800781 -2.621094 Z M 8.800781 -2.621094 "/></g></g></g><g fill="#e0d9c8" fill-opacity="1"><g transform="translate(119.036155, 251.36238)"><g><path d="M 8.488281 -4.304688 C 8.488281 -3.324219 8.132812 -2.492188 7.453125 -1.8125 C 6.761719 -1.121094 5.929688 -0.78125 4.960938 -0.78125 C 3.992188 -0.78125 3.160156 -1.121094 2.480469 -1.8125 C 1.789062 -2.492188 1.449219 -3.324219 1.449219 -4.304688 C 1.449219 -5.261719 1.789062 -6.09375 2.480469 -6.789062 C 3.160156 -7.46875 3.992188 -7.820312 4.960938 -7.820312 C 5.929688 -7.820312 6.761719 -7.46875 7.453125 -6.789062 C 8.132812 -6.09375 8.488281 -5.261719 8.488281 -4.304688 Z M 9.367188 -4.304688 C 9.367188 -4.910156 9.242188 -5.476562 9.015625 -6.019531 C 8.789062 -6.546875 8.476562 -7.015625 8.070312 -7.417969 C 7.667969 -7.808594 7.203125 -8.121094 6.675781 -8.347656 C 6.132812 -8.574219 5.566406 -8.703125 4.960938 -8.703125 C 4.355469 -8.703125 3.777344 -8.574219 3.25 -8.347656 C 2.71875 -8.121094 2.253906 -7.808594 1.851562 -7.417969 C 1.449219 -7.015625 1.132812 -6.546875 0.90625 -6.019531 C 0.679688 -5.476562 0.566406 -4.910156 0.566406 -4.304688 C 0.566406 -3.703125 0.679688 -3.121094 0.90625 -2.59375 C 1.132812 -2.050781 1.449219 -1.585938 1.851562 -1.183594 C 2.253906 -0.78125 2.71875 -0.464844 3.25 -0.238281 C 3.777344 -0.0117188 4.355469 0.101562 4.960938 0.101562 C 5.566406 0.101562 6.132812 -0.0117188 6.675781 -0.238281 C 7.203125 -0.464844 7.667969 -0.78125 8.070312 -1.183594 C 8.476562 -1.585938 8.789062 -2.050781 9.015625 -2.59375 C 9.242188 -3.121094 9.367188 -3.703125 9.367188 -4.304688 Z M 9.367188 -4.304688 "/></g></g></g><g fill="#e0d9c8" fill-opacity="1"><g transform="translate(133.691276, 251.36238)"><g><path d="M 1.824219 -0.882812 L 1.824219 -8.5625 L 0.945312 -8.5625 L 0.945312 0 L 4.886719 0 L 4.886719 -0.882812 Z M 1.824219 -0.882812 "/></g></g></g><g fill="#e0d9c8" fill-opacity="1"><g transform="translate(143.551142, 251.36238)"><g><path d="M 1.824219 -0.882812 L 1.824219 -8.5625 L 0.945312 -8.5625 L 0.945312 0 L 4.886719 0 L 4.886719 -0.882812 Z M 1.824219 -0.882812 "/></g></g></g><g fill="#e0d9c8" fill-opacity="1"><g transform="translate(153.411005, 251.36238)"><g><path d="M 6.03125 0 L 6.03125 -0.820312 L 1.824219 -0.820312 L 1.824219 -3.867188 L 5.90625 -3.867188 L 5.90625 -4.695312 L 1.824219 -4.695312 L 1.824219 -7.746094 L 6.03125 -7.746094 L 6.03125 -8.5625 L 0.945312 -8.5625 L 0.945312 0 Z M 6.03125 0 "/></g></g></g><g fill="#e0d9c8" fill-opacity="1"><g transform="translate(165.108422, 251.36238)"><g><path d="M 9.394531 -4.003906 L 4.9375 -4.003906 L 4.9375 -3.234375 L 8.410156 -3.234375 C 8.148438 -2.492188 7.707031 -1.890625 7.078125 -1.449219 C 6.449219 -0.996094 5.742188 -0.78125 4.972656 -0.78125 C 3.992188 -0.78125 3.160156 -1.121094 2.46875 -1.8125 C 1.789062 -2.507812 1.449219 -3.347656 1.449219 -4.320312 C 1.449219 -5.289062 1.789062 -6.121094 2.480469 -6.8125 C 3.160156 -7.492188 3.992188 -7.84375 4.972656 -7.84375 C 5.703125 -7.84375 6.371094 -7.632812 6.964844 -7.214844 C 7.566406 -6.800781 7.996094 -6.257812 8.273438 -5.566406 L 9.207031 -5.566406 C 8.914062 -6.511719 8.375 -7.265625 7.59375 -7.84375 C 6.8125 -8.425781 5.90625 -8.726562 4.886719 -8.726562 C 4.332031 -8.726562 3.789062 -8.601562 3.261719 -8.375 C 2.71875 -8.148438 2.253906 -7.832031 1.851562 -7.429688 C 1.449219 -7.027344 1.132812 -6.5625 0.90625 -6.03125 C 0.679688 -5.492188 0.566406 -4.910156 0.566406 -4.304688 C 0.566406 -3.703125 0.679688 -3.121094 0.90625 -2.59375 C 1.132812 -2.050781 1.449219 -1.585938 1.851562 -1.183594 C 2.253906 -0.78125 2.71875 -0.464844 3.261719 -0.238281 C 3.789062 -0.0117188 4.371094 0.101562 4.972656 0.101562 C 6.007812 0.101562 6.9375 -0.226562 7.769531 -0.894531 C 8.601562 -1.574219 9.117188 -2.429688 9.304688 -3.476562 Z M 9.394531 -4.003906 "/></g></g></g><g fill="#e0d9c8" fill-opacity="1"><g transform="translate(179.788719, 251.36238)"><g><path d="M 6.03125 0 L 6.03125 -0.820312 L 1.824219 -0.820312 L 1.824219 -3.867188 L 5.90625 -3.867188 L 5.90625 -4.695312 L 1.824219 -4.695312 L 1.824219 -7.746094 L 6.03125 -7.746094 L 6.03125 -8.5625 L 0.945312 -8.5625 L 0.945312 0 Z M 6.03125 0 "/></g></g></g><g fill="#e0d9c8" fill-opacity="1"><g transform="translate(191.486136, 251.36238)"><g/></g></g><g fill="#e0d9c8" fill-opacity="1"><g transform="translate(199.609129, 251.36238)"><g><path d="M 1.824219 -6.308594 L 6.636719 0.527344 L 6.636719 -8.5625 L 5.753906 -8.5625 L 5.753906 -2.265625 L 0.945312 -9.105469 L 0.945312 0 L 1.824219 0 Z M 1.824219 -6.308594 "/></g></g></g><g fill="#e0d9c8" fill-opacity="1"><g transform="translate(211.910674, 251.36238)"><g><path d="M 8.488281 -4.304688 C 8.488281 -3.324219 8.132812 -2.492188 7.453125 -1.8125 C 6.761719 -1.121094 5.929688 -0.78125 4.960938 -0.78125 C 3.992188 -0.78125 3.160156 -1.121094 2.480469 -1.8125 C 1.789062 -2.492188 1.449219 -3.324219 1.449219 -4.304688 C 1.449219 -5.261719 1.789062 -6.09375 2.480469 -6.789062 C 3.160156 -7.46875 3.992188 -7.820312 4.960938 -7.820312 C 5.929688 -7.820312 6.761719 -7.46875 7.453125 -6.789062 C 8.132812 -6.09375 8.488281 -5.261719 8.488281 -4.304688 Z M 9.367188 -4.304688 C 9.367188 -4.910156 9.242188 -5.476562 9.015625 -6.019531 C 8.789062 -6.546875 8.476562 -7.015625 8.070312 -7.417969 C 7.667969 -7.808594 7.203125 -8.121094 6.675781 -8.347656 C 6.132812 -8.574219 5.566406 -8.703125 4.960938 -8.703125 C 4.355469 -8.703125 3.777344 -8.574219 3.25 -8.347656 C 2.71875 -8.121094 2.253906 -7.808594 1.851562 -7.417969 C 1.449219 -7.015625 1.132812 -6.546875 0.90625 -6.019531 C 0.679688 -5.476562 0.566406 -4.910156 0.566406 -4.304688 C 0.566406 -3.703125 0.679688 -3.121094 0.90625 -2.59375 C 1.132812 -2.050781 1.449219 -1.585938 1.851562 -1.183594 C 2.253906 -0.78125 2.71875 -0.464844 3.25 -0.238281 C 3.777344 -0.0117188 4.355469 0.101562 4.960938 0.101562 C 5.566406 0.101562 6.132812 -0.0117188 6.675781 -0.238281 C 7.203125 -0.464844 7.667969 -0.78125 8.070312 -1.183594 C 8.476562 -1.585938 8.789062 -2.050781 9.015625 -2.59375 C 9.242188 -3.121094 9.367188 -3.703125 9.367188 -4.304688 Z M 9.367188 -4.304688 "/></g></g></g><g fill="#e0d9c8" fill-opacity="1"><g transform="translate(226.565794, 251.36238)"><g><path d="M 0.25 -7.769531 L 2.328125 -7.769531 L 2.328125 -0.0234375 L 3.210938 -0.0234375 L 3.210938 -7.769531 L 5.289062 -7.769531 L 5.289062 -8.589844 L 0.25 -8.589844 Z M 0.25 -7.769531 "/></g></g></g><g fill="#e0d9c8" fill-opacity="1"><g transform="translate(236.828409, 251.36238)"><g><path d="M 1.824219 0 L 1.824219 -8.5625 L 0.945312 -8.5625 L 0.945312 0 Z M 1.824219 0 "/></g></g></g><g fill="#e0d9c8" fill-opacity="1"><g transform="translate(244.322102, 251.36238)"><g><path d="M 0.25 -7.769531 L 2.328125 -7.769531 L 2.328125 -0.0234375 L 3.210938 -0.0234375 L 3.210938 -7.769531 L 5.289062 -7.769531 L 5.289062 -8.589844 L 0.25 -8.589844 Z M 0.25 -7.769531 "/></g></g></g><g fill="#e0d9c8" fill-opacity="1"><g transform="translate(254.584717, 251.36238)"><g><path d="M 1.824219 0 L 1.824219 -8.5625 L 0.945312 -8.5625 L 0.945312 0 Z M 1.824219 0 "/></g></g></g><g fill="#e0d9c8" fill-opacity="1"><g transform="translate(262.078411, 251.36238)"><g><path d="M 2.328125 -3.148438 L 3.890625 -7.089844 L 5.441406 -3.148438 Z M 7.644531 0 L 3.890625 -9.15625 L 0.125 0 L 1.082031 0 L 2.003906 -2.328125 L 5.765625 -2.328125 L 6.6875 0 Z M 7.644531 0 "/></g></g></g></svg>